<svg width="129" height="48" viewBox="0 0 129 48" fill="none" xmlns="http://www.w3.org/2000/svg">
<rect width="129" height="48" rx="10" fill="#2F80ED"/>
<path d="M34.24 33.288C32.544 33.288 31.088 32.928 29.872 32.208C28.656 31.472 27.72 30.456 27.064 29.16C26.408 27.848 26.08 26.336 26.08 24.624C26.08 22.912 26.408 21.4 27.064 20.088C27.72 18.776 28.656 17.752 29.872 17.016C31.088 16.28 32.544 15.912 34.24 15.912C36.256 15.912 37.904 16.416 39.184 17.424C40.48 18.416 41.288 19.816 41.608 21.624H38.224C38.016 20.712 37.568 20 36.88 19.488C36.208 18.96 35.312 18.696 34.192 18.696C32.64 18.696 31.424 19.224 30.544 20.28C29.664 21.336 29.224 22.784 29.224 24.624C29.224 26.464 29.664 27.912 30.544 28.968C31.424 30.008 32.64 30.528 34.192 30.528C35.312 30.528 36.208 30.288 36.88 29.808C37.568 29.312 38.016 28.632 38.224 27.768H41.608C41.288 29.496 40.48 30.848 39.184 31.824C37.904 32.8 36.256 33.288 34.24 33.288ZM44.2553 33V21.096H46.9913L47.2793 23.328C47.7113 22.56 48.2953 21.952 49.0313 21.504C49.7833 21.04 50.6633 20.808 51.6713 20.808V24.048H50.8073C50.1353 24.048 49.5353 24.152 49.0073 24.36C48.4793 24.568 48.0633 24.928 47.7593 25.44C47.4713 25.952 47.3273 26.664 47.3273 27.576V33H44.2553ZM59.344 33.288C58.144 33.288 57.08 33.032 56.152 32.52C55.224 32.008 54.496 31.288 53.968 30.36C53.44 29.432 53.176 28.36 53.176 27.144C53.176 25.912 53.432 24.816 53.944 23.856C54.472 22.896 55.192 22.152 56.104 21.624C57.032 21.08 58.12 20.808 59.368 20.808C60.536 20.808 61.568 21.064 62.464 21.576C63.36 22.088 64.056 22.792 64.552 23.688C65.064 24.568 65.32 25.552 65.32 26.64C65.32 26.816 65.312 27 65.296 27.192C65.296 27.384 65.288 27.584 65.272 27.792H56.224C56.288 28.72 56.608 29.448 57.184 29.976C57.776 30.504 58.488 30.768 59.32 30.768C59.944 30.768 60.464 30.632 60.88 30.36C61.312 30.072 61.632 29.704 61.84 29.256H64.96C64.736 30.008 64.36 30.696 63.832 31.32C63.32 31.928 62.68 32.408 61.912 32.76C61.16 33.112 60.304 33.288 59.344 33.288ZM59.368 23.304C58.616 23.304 57.952 23.52 57.376 23.952C56.8 24.368 56.432 25.008 56.272 25.872H62.2C62.152 25.088 61.864 24.464 61.336 24C60.808 23.536 60.152 23.304 59.368 23.304ZM72.0078 33.288C70.9838 33.288 70.1438 33.128 69.4878 32.808C68.8318 32.472 68.3438 32.032 68.0238 31.488C67.7038 30.944 67.5438 30.344 67.5438 29.688C67.5438 28.584 67.9758 27.688 68.8398 27C69.7038 26.312 70.9998 25.968 72.7278 25.968H75.7518V25.68C75.7518 24.864 75.5198 24.264 75.0558 23.88C74.5918 23.496 74.0158 23.304 73.3278 23.304C72.7038 23.304 72.1598 23.456 71.6958 23.76C71.2318 24.048 70.9438 24.48 70.8318 25.056H67.8318C67.9118 24.192 68.1998 23.44 68.6958 22.8C69.2078 22.16 69.8638 21.672 70.6638 21.336C71.4638 20.984 72.3598 20.808 73.3518 20.808C75.0478 20.808 76.3838 21.232 77.3598 22.08C78.3358 22.928 78.8238 24.128 78.8238 25.68V33H76.2078L75.9198 31.08C75.5678 31.72 75.0718 32.248 74.4318 32.664C73.8078 33.08 72.9998 33.288 72.0078 33.288ZM72.7038 30.888C73.5838 30.888 74.2638 30.6 74.7438 30.024C75.2398 29.448 75.5518 28.736 75.6798 27.888H73.0638C72.2478 27.888 71.6638 28.04 71.3118 28.344C70.9598 28.632 70.7838 28.992 70.7838 29.424C70.7838 29.888 70.9598 30.248 71.3118 30.504C71.6638 30.76 72.1278 30.888 72.7038 30.888ZM86.8953 33C85.6473 33 84.6473 32.696 83.8953 32.088C83.1433 31.48 82.7673 30.4 82.7673 28.848V23.664H80.7273V21.096H82.7673L83.1273 17.904H85.8393V21.096H89.0553V23.664H85.8393V28.872C85.8393 29.448 85.9593 29.848 86.1992 30.072C86.4553 30.28 86.8873 30.384 87.4953 30.384H88.9833V33H86.8953ZM97.1721 33.288C95.9721 33.288 94.9081 33.032 93.9801 32.52C93.0521 32.008 92.3241 31.288 91.7961 30.36C91.2681 29.432 91.0041 28.36 91.0041 27.144C91.0041 25.912 91.2601 24.816 91.7721 23.856C92.3001 22.896 93.0201 22.152 93.9321 21.624C94.8601 21.08 95.9481 20.808 97.1961 20.808C98.3641 20.808 99.3961 21.064 100.292 21.576C101.188 22.088 101.884 22.792 102.38 23.688C102.892 24.568 103.148 25.552 103.148 26.64C103.148 26.816 103.14 27 103.124 27.192C103.124 27.384 103.116 27.584 103.1 27.792H94.0521C94.1161 28.72 94.4361 29.448 95.0121 29.976C95.6041 30.504 96.3161 30.768 97.1481 30.768C97.7721 30.768 98.2921 30.632 98.7081 30.36C99.1401 30.072 99.4601 29.704 99.6681 29.256H102.788C102.564 30.008 102.188 30.696 101.66 31.32C101.148 31.928 100.508 32.408 99.7401 32.76C98.9881 33.112 98.1321 33.288 97.1721 33.288ZM97.1961 23.304C96.4441 23.304 95.7801 23.52 95.2041 23.952C94.6281 24.368 94.2601 25.008 94.1001 25.872H100.028C99.9801 25.088 99.6921 24.464 99.1641 24C98.6361 23.536 97.9801 23.304 97.1961 23.304Z" fill="white"/>
</svg>
