<svg width="456" height="58" viewBox="0 0 456 58" fill="none" xmlns="http://www.w3.org/2000/svg">
<path d="M21.1 44.72C16.86 44.72 13.22 43.82 10.18 42.02C7.14 40.18 4.8 37.64 3.16 34.4C1.52 31.12 0.7 27.34 0.7 23.06C0.7 18.78 1.52 15 3.16 11.72C4.8 8.44 7.14 5.88 10.18 4.04C13.22 2.2 16.86 1.28 21.1 1.28C26.14 1.28 30.26 2.54 33.46 5.06C36.7 7.54 38.72 11.04 39.52 15.56H31.06C30.54 13.28 29.42 11.5 27.7 10.22C26.02 8.9 23.78 8.24 20.98 8.24C17.1 8.24 14.06 9.56 11.86 12.2C9.66 14.84 8.56 18.46 8.56 23.06C8.56 27.66 9.66 31.28 11.86 33.92C14.06 36.52 17.1 37.82 20.98 37.82C23.78 37.82 26.02 37.22 27.7 36.02C29.42 34.78 30.54 33.08 31.06 30.92H39.52C38.72 35.24 36.7 38.62 33.46 41.06C30.26 43.5 26.14 44.72 21.1 44.72ZM46.1383 44V14.24H52.9783L53.6983 19.82C54.7783 17.9 56.2383 16.38 58.0783 15.26C59.9583 14.1 62.1583 13.52 64.6783 13.52V21.62H62.5183C60.8383 21.62 59.3383 21.88 58.0183 22.4C56.6983 22.92 55.6583 23.82 54.8983 25.1C54.1783 26.38 53.8183 28.16 53.8183 30.44V44H46.1383ZM83.86 44.72C80.86 44.72 78.2 44.08 75.88 42.8C73.56 41.52 71.74 39.72 70.42 37.4C69.1 35.08 68.44 32.4 68.44 29.36C68.44 26.28 69.08 23.54 70.36 21.14C71.68 18.74 73.48 16.88 75.76 15.56C78.08 14.2 80.8 13.52 83.92 13.52C86.84 13.52 89.42 14.16 91.66 15.44C93.9 16.72 95.64 18.48 96.88 20.72C98.16 22.92 98.8 25.38 98.8 28.1C98.8 28.54 98.78 29 98.74 29.48C98.74 29.96 98.72 30.46 98.68 30.98H76.06C76.22 33.3 77.02 35.12 78.46 36.44C79.94 37.76 81.72 38.42 83.8 38.42C85.36 38.42 86.66 38.08 87.7 37.4C88.78 36.68 89.58 35.76 90.1 34.64H97.9C97.34 36.52 96.4 38.24 95.08 39.8C93.8 41.32 92.2 42.52 90.28 43.4C88.4 44.28 86.26 44.72 83.86 44.72ZM83.92 19.76C82.04 19.76 80.38 20.3 78.94 21.38C77.5 22.42 76.58 24.02 76.18 26.18H91C90.88 24.22 90.16 22.66 88.84 21.5C87.52 20.34 85.88 19.76 83.92 19.76ZM115.519 44.72C112.959 44.72 110.859 44.32 109.219 43.52C107.579 42.68 106.359 41.58 105.559 40.22C104.759 38.86 104.359 37.36 104.359 35.72C104.359 32.96 105.439 30.72 107.599 29C109.759 27.28 112.999 26.42 117.319 26.42H124.879V25.7C124.879 23.66 124.299 22.16 123.139 21.2C121.979 20.24 120.539 19.76 118.819 19.76C117.259 19.76 115.899 20.14 114.739 20.9C113.579 21.62 112.859 22.7 112.579 24.14H105.079C105.279 21.98 105.999 20.1 107.239 18.5C108.519 16.9 110.159 15.68 112.159 14.84C114.159 13.96 116.399 13.52 118.879 13.52C123.119 13.52 126.459 14.58 128.899 16.7C131.339 18.82 132.559 21.82 132.559 25.7V44H126.019L125.299 39.2C124.419 40.8 123.179 42.12 121.579 43.16C120.019 44.2 117.999 44.72 115.519 44.72ZM117.259 38.72C119.459 38.72 121.159 38 122.359 36.56C123.599 35.12 124.379 33.34 124.699 31.22H118.159C116.119 31.22 114.659 31.6 113.779 32.36C112.899 33.08 112.459 33.98 112.459 35.06C112.459 36.22 112.899 37.12 113.779 37.76C114.659 38.4 115.819 38.72 117.259 38.72ZM152.738 44C149.618 44 147.118 43.24 145.238 41.72C143.358 40.2 142.418 37.5 142.418 33.62V20.66H137.318V14.24H142.418L143.318 6.26H150.098V14.24H158.138V20.66H150.098V33.68C150.098 35.12 150.398 36.12 150.998 36.68C151.638 37.2 152.718 37.46 154.238 37.46H157.958V44H152.738ZM178.43 44.72C175.43 44.72 172.77 44.08 170.45 42.8C168.13 41.52 166.31 39.72 164.99 37.4C163.67 35.08 163.01 32.4 163.01 29.36C163.01 26.28 163.65 23.54 164.93 21.14C166.25 18.74 168.05 16.88 170.33 15.56C172.65 14.2 175.37 13.52 178.49 13.52C181.41 13.52 183.99 14.16 186.23 15.44C188.47 16.72 190.21 18.48 191.45 20.72C192.73 22.92 193.37 25.38 193.37 28.1C193.37 28.54 193.35 29 193.31 29.48C193.31 29.96 193.29 30.46 193.25 30.98H170.63C170.79 33.3 171.59 35.12 173.03 36.44C174.51 37.76 176.29 38.42 178.37 38.42C179.93 38.42 181.23 38.08 182.27 37.4C183.35 36.68 184.15 35.76 184.67 34.64H192.47C191.91 36.52 190.97 38.24 189.65 39.8C188.37 41.32 186.77 42.52 184.85 43.4C182.97 44.28 180.83 44.72 178.43 44.72ZM178.49 19.76C176.61 19.76 174.95 20.3 173.51 21.38C172.07 22.42 171.15 24.02 170.75 26.18H185.57C185.45 24.22 184.73 22.66 183.41 21.5C182.09 20.34 180.45 19.76 178.49 19.76ZM203.13 44.42C201.73 44.42 200.57 43.98 199.65 43.1C198.77 42.22 198.33 41.16 198.33 39.92C198.33 38.64 198.77 37.56 199.65 36.68C200.57 35.8 201.73 35.36 203.13 35.36C204.53 35.36 205.67 35.8 206.55 36.68C207.47 37.56 207.93 38.64 207.93 39.92C207.93 41.16 207.47 42.22 206.55 43.1C205.67 43.98 204.53 44.42 203.13 44.42ZM228.721 44V2H256.141V8.18H236.401V19.7H254.341V25.7H236.401V37.82H256.141V44H228.721ZM260.408 44L271.208 29.12L260.408 14.24H268.628L276.188 24.8L283.688 14.24H291.968L281.108 29.12L291.968 44H283.688L276.188 33.44L268.628 44H260.408ZM296.861 57.2V14.24H303.701L304.541 18.5C305.501 17.18 306.761 16.02 308.321 15.02C309.921 14.02 311.981 13.52 314.501 13.52C317.301 13.52 319.801 14.2 322.001 15.56C324.201 16.92 325.941 18.78 327.221 21.14C328.501 23.5 329.141 26.18 329.141 29.18C329.141 32.18 328.501 34.86 327.221 37.22C325.941 39.54 324.201 41.38 322.001 42.74C319.801 44.06 317.301 44.72 314.501 44.72C312.261 44.72 310.301 44.3 308.621 43.46C306.941 42.62 305.581 41.44 304.541 39.92V57.2H296.861ZM312.881 38C315.321 38 317.341 37.18 318.941 35.54C320.541 33.9 321.341 31.78 321.341 29.18C321.341 26.58 320.541 24.44 318.941 22.76C317.341 21.08 315.321 20.24 312.881 20.24C310.401 20.24 308.361 21.08 306.761 22.76C305.201 24.4 304.421 26.52 304.421 29.12C304.421 31.72 305.201 33.86 306.761 35.54C308.361 37.18 310.401 38 312.881 38ZM336.002 44V0.799998H343.682V44H336.002ZM365.809 44.72C362.929 44.72 360.329 44.06 358.009 42.74C355.729 41.42 353.909 39.6 352.549 37.28C351.229 34.92 350.569 32.2 350.569 29.12C350.569 26.04 351.249 23.34 352.609 21.02C353.969 18.66 355.789 16.82 358.069 15.5C360.389 14.18 362.989 13.52 365.869 13.52C368.709 13.52 371.269 14.18 373.549 15.5C375.869 16.82 377.689 18.66 379.009 21.02C380.369 23.34 381.049 26.04 381.049 29.12C381.049 32.2 380.369 34.92 379.009 37.28C377.689 39.6 375.869 41.42 373.549 42.74C371.229 44.06 368.649 44.72 365.809 44.72ZM365.809 38.06C367.809 38.06 369.549 37.32 371.029 35.84C372.509 34.32 373.249 32.08 373.249 29.12C373.249 26.16 372.509 23.94 371.029 22.46C369.549 20.94 367.829 20.18 365.869 20.18C363.829 20.18 362.069 20.94 360.589 22.46C359.149 23.94 358.429 26.16 358.429 29.12C358.429 32.08 359.149 34.32 360.589 35.84C362.069 37.32 363.809 38.06 365.809 38.06ZM387.916 44V14.24H394.756L395.476 19.82C396.556 17.9 398.016 16.38 399.856 15.26C401.736 14.1 403.936 13.52 406.456 13.52V21.62H404.296C402.616 21.62 401.116 21.88 399.796 22.4C398.476 22.92 397.436 23.82 396.676 25.1C395.956 26.38 395.596 28.16 395.596 30.44V44H387.916ZM425.637 44.72C422.637 44.72 419.977 44.08 417.657 42.8C415.337 41.52 413.517 39.72 412.197 37.4C410.877 35.08 410.217 32.4 410.217 29.36C410.217 26.28 410.857 23.54 412.137 21.14C413.457 18.74 415.257 16.88 417.537 15.56C419.857 14.2 422.577 13.52 425.697 13.52C428.617 13.52 431.197 14.16 433.437 15.44C435.677 16.72 437.417 18.48 438.657 20.72C439.937 22.92 440.577 25.38 440.577 28.1C440.577 28.54 440.557 29 440.517 29.48C440.517 29.96 440.497 30.46 440.457 30.98H417.837C417.997 33.3 418.797 35.12 420.237 36.44C421.717 37.76 423.497 38.42 425.577 38.42C427.137 38.42 428.437 38.08 429.477 37.4C430.557 36.68 431.357 35.76 431.877 34.64H439.677C439.117 36.52 438.177 38.24 436.857 39.8C435.577 41.32 433.977 42.52 432.057 43.4C430.177 44.28 428.037 44.72 425.637 44.72ZM425.697 19.76C423.817 19.76 422.157 20.3 420.717 21.38C419.277 22.42 418.357 24.02 417.957 26.18H432.777C432.657 24.22 431.937 22.66 430.617 21.5C429.297 20.34 427.657 19.76 425.697 19.76ZM450.337 44.42C448.937 44.42 447.777 43.98 446.857 43.1C445.977 42.22 445.537 41.16 445.537 39.92C445.537 38.64 445.977 37.56 446.857 36.68C447.777 35.8 448.937 35.36 450.337 35.36C451.737 35.36 452.877 35.8 453.757 36.68C454.677 37.56 455.137 38.64 455.137 39.92C455.137 41.16 454.677 42.22 453.757 43.1C452.877 43.98 451.737 44.42 450.337 44.42Z" fill="#545454"/>
</svg>
