<svg width="78" height="19" viewBox="0 0 78 19" fill="none" xmlns="http://www.w3.org/2000/svg">
<path d="M8.24 18.288C6.544 18.288 5.088 17.928 3.872 17.208C2.656 16.472 1.72 15.456 1.064 14.16C0.408 12.848 0.08 11.336 0.08 9.624C0.08 7.912 0.408 6.4 1.064 5.088C1.72 3.776 2.656 2.752 3.872 2.016C5.088 1.28 6.544 0.912 8.24 0.912C10.256 0.912 11.904 1.416 13.184 2.424C14.48 3.416 15.288 4.816 15.608 6.624H12.224C12.016 5.712 11.568 5 10.88 4.488C10.208 3.96 9.312 3.696 8.192 3.696C6.64 3.696 5.424 4.224 4.544 5.28C3.664 6.336 3.224 7.784 3.224 9.624C3.224 11.464 3.664 12.912 4.544 13.968C5.424 15.008 6.64 15.528 8.192 15.528C9.312 15.528 10.208 15.288 10.88 14.808C11.568 14.312 12.016 13.632 12.224 12.768H15.608C15.288 14.496 14.48 15.848 13.184 16.824C11.904 17.8 10.256 18.288 8.24 18.288ZM18.2553 18V6.096H20.9913L21.2793 8.328C21.7113 7.56 22.2953 6.952 23.0313 6.504C23.7833 6.04 24.6633 5.808 25.6713 5.808V9.048H24.8073C24.1353 9.048 23.5353 9.152 23.0073 9.36C22.4793 9.568 22.0633 9.928 21.7593 10.44C21.4713 10.952 21.3273 11.664 21.3273 12.576V18H18.2553ZM33.344 18.288C32.144 18.288 31.08 18.032 30.152 17.52C29.224 17.008 28.496 16.288 27.968 15.36C27.44 14.432 27.176 13.36 27.176 12.144C27.176 10.912 27.432 9.816 27.944 8.856C28.472 7.896 29.192 7.152 30.104 6.624C31.032 6.08 32.12 5.808 33.368 5.808C34.536 5.808 35.568 6.064 36.464 6.576C37.36 7.088 38.056 7.792 38.552 8.688C39.064 9.568 39.32 10.552 39.32 11.64C39.32 11.816 39.312 12 39.296 12.192C39.296 12.384 39.288 12.584 39.272 12.792H30.224C30.288 13.72 30.608 14.448 31.184 14.976C31.776 15.504 32.488 15.768 33.32 15.768C33.944 15.768 34.464 15.632 34.88 15.36C35.312 15.072 35.632 14.704 35.84 14.256H38.96C38.736 15.008 38.36 15.696 37.832 16.32C37.32 16.928 36.68 17.408 35.912 17.76C35.16 18.112 34.304 18.288 33.344 18.288ZM33.368 8.304C32.616 8.304 31.952 8.52 31.376 8.952C30.8 9.368 30.432 10.008 30.272 10.872H36.2C36.152 10.088 35.864 9.464 35.336 9C34.808 8.536 34.152 8.304 33.368 8.304ZM46.0078 18.288C44.9838 18.288 44.1438 18.128 43.4878 17.808C42.8318 17.472 42.3438 17.032 42.0238 16.488C41.7038 15.944 41.5438 15.344 41.5438 14.688C41.5438 13.584 41.9758 12.688 42.8398 12C43.7038 11.312 44.9998 10.968 46.7278 10.968H49.7518V10.68C49.7518 9.864 49.5198 9.264 49.0558 8.88C48.5918 8.496 48.0158 8.304 47.3278 8.304C46.7038 8.304 46.1598 8.456 45.6958 8.76C45.2318 9.048 44.9438 9.48 44.8318 10.056H41.8318C41.9118 9.192 42.1998 8.44 42.6958 7.8C43.2078 7.16 43.8638 6.672 44.6638 6.336C45.4638 5.984 46.3598 5.808 47.3518 5.808C49.0478 5.808 50.3838 6.232 51.3598 7.08C52.3358 7.928 52.8238 9.128 52.8238 10.68V18H50.2078L49.9198 16.08C49.5678 16.72 49.0718 17.248 48.4318 17.664C47.8078 18.08 46.9998 18.288 46.0078 18.288ZM46.7038 15.888C47.5838 15.888 48.2638 15.6 48.7438 15.024C49.2398 14.448 49.5518 13.736 49.6798 12.888H47.0638C46.2478 12.888 45.6638 13.04 45.3118 13.344C44.9598 13.632 44.7838 13.992 44.7838 14.424C44.7838 14.888 44.9598 15.248 45.3118 15.504C45.6638 15.76 46.1278 15.888 46.7038 15.888ZM60.8953 18C59.6473 18 58.6473 17.696 57.8953 17.088C57.1433 16.48 56.7673 15.4 56.7673 13.848V8.664H54.7273V6.096H56.7673L57.1273 2.904H59.8393V6.096H63.0553V8.664H59.8393V13.872C59.8393 14.448 59.9593 14.848 60.1992 15.072C60.4553 15.28 60.8873 15.384 61.4953 15.384H62.9833V18H60.8953ZM71.1721 18.288C69.9721 18.288 68.9081 18.032 67.9801 17.52C67.0521 17.008 66.3241 16.288 65.7961 15.36C65.2681 14.432 65.0041 13.36 65.0041 12.144C65.0041 10.912 65.2601 9.816 65.7721 8.856C66.3001 7.896 67.0201 7.152 67.9321 6.624C68.8601 6.08 69.9481 5.808 71.1961 5.808C72.3641 5.808 73.3961 6.064 74.2921 6.576C75.1881 7.088 75.8841 7.792 76.3801 8.688C76.8921 9.568 77.1481 10.552 77.1481 11.64C77.1481 11.816 77.1401 12 77.1241 12.192C77.1241 12.384 77.1161 12.584 77.1001 12.792H68.0521C68.1161 13.72 68.4361 14.448 69.0121 14.976C69.6041 15.504 70.3161 15.768 71.1481 15.768C71.7721 15.768 72.2921 15.632 72.7081 15.36C73.1401 15.072 73.4601 14.704 73.6681 14.256H76.7881C76.5641 15.008 76.1881 15.696 75.6601 16.32C75.1481 16.928 74.5081 17.408 73.7401 17.76C72.9881 18.112 72.1321 18.288 71.1721 18.288ZM71.1961 8.304C70.4441 8.304 69.7801 8.52 69.2041 8.952C68.6281 9.368 68.2601 10.008 68.1001 10.872H74.0281C73.9801 10.088 73.6921 9.464 73.1641 9C72.6361 8.536 71.9801 8.304 71.1961 8.304Z" fill="white"/>
</svg>
