<svg width="150" height="150" viewBox="0 0 150 150" fill="none" xmlns="http://www.w3.org/2000/svg">
<rect x="1" y="1" width="148" height="148" rx="9" fill="#F8F8F8" stroke="#A3A3A3" stroke-width="2"/>
<path d="M14.36 44V30H16.92V42H23.12V44H14.36ZM29.6264 44.24C28.6664 44.24 27.7997 44.02 27.0264 43.58C26.2664 43.14 25.6597 42.5333 25.2064 41.76C24.7664 40.9733 24.5464 40.0667 24.5464 39.04C24.5464 38.0133 24.7731 37.1133 25.2264 36.34C25.6797 35.5533 26.2864 34.94 27.0464 34.5C27.8197 34.06 28.6864 33.84 29.6464 33.84C30.5931 33.84 31.4464 34.06 32.2064 34.5C32.9797 34.94 33.5864 35.5533 34.0264 36.34C34.4797 37.1133 34.7064 38.0133 34.7064 39.04C34.7064 40.0667 34.4797 40.9733 34.0264 41.76C33.5864 42.5333 32.9797 43.14 32.2064 43.58C31.4331 44.02 30.5731 44.24 29.6264 44.24ZM29.6264 42.02C30.2931 42.02 30.8731 41.7733 31.3664 41.28C31.8597 40.7733 32.1064 40.0267 32.1064 39.04C32.1064 38.0533 31.8597 37.3133 31.3664 36.82C30.8731 36.3133 30.2997 36.06 29.6464 36.06C28.9664 36.06 28.3797 36.3133 27.8864 36.82C27.4064 37.3133 27.1664 38.0533 27.1664 39.04C27.1664 40.0267 27.4064 40.7733 27.8864 41.28C28.3797 41.7733 28.9597 42.02 29.6264 42.02ZM36.9953 44V34.08H39.2753L39.5153 35.94C39.8753 35.3 40.362 34.7933 40.9753 34.42C41.602 34.0333 42.3353 33.84 43.1753 33.84V36.54H42.4553C41.8953 36.54 41.3953 36.6267 40.9553 36.8C40.5153 36.9733 40.1686 37.2733 39.9153 37.7C39.6753 38.1267 39.5553 38.72 39.5553 39.48V44H36.9953ZM49.5692 44.24C48.5692 44.24 47.6826 44.0267 46.9092 43.6C46.1359 43.1733 45.5292 42.5733 45.0892 41.8C44.6492 41.0267 44.4292 40.1333 44.4292 39.12C44.4292 38.0933 44.6426 37.18 45.0692 36.38C45.5092 35.58 46.1092 34.96 46.8692 34.52C47.6426 34.0667 48.5492 33.84 49.5892 33.84C50.5626 33.84 51.4226 34.0533 52.1692 34.48C52.9159 34.9067 53.4959 35.4933 53.9092 36.24C54.3359 36.9733 54.5492 37.7933 54.5492 38.7C54.5492 38.8467 54.5426 39 54.5292 39.16C54.5292 39.32 54.5226 39.4867 54.5092 39.66H46.9692C47.0226 40.4333 47.2892 41.04 47.7692 41.48C48.2626 41.92 48.8559 42.14 49.5492 42.14C50.0692 42.14 50.5026 42.0267 50.8492 41.8C51.2092 41.56 51.4759 41.2533 51.6492 40.88H54.2492C54.0626 41.5067 53.7492 42.08 53.3092 42.6C52.8826 43.1067 52.3492 43.5067 51.7092 43.8C51.0826 44.0933 50.3692 44.24 49.5692 44.24ZM49.5892 35.92C48.9626 35.92 48.4092 36.1 47.9292 36.46C47.4492 36.8067 47.1426 37.34 47.0092 38.06H51.9492C51.9092 37.4067 51.6692 36.8867 51.2292 36.5C50.7892 36.1133 50.2426 35.92 49.5892 35.92ZM56.7023 44V34.08H58.9623L59.1823 35.42C59.5023 34.94 59.9223 34.56 60.4423 34.28C60.9757 33.9867 61.589 33.84 62.2823 33.84C63.8157 33.84 64.9023 34.4333 65.5423 35.62C65.9023 35.0733 66.3823 34.64 66.9823 34.32C67.5957 34 68.2623 33.84 68.9823 33.84C70.2757 33.84 71.269 34.2267 71.9623 35C72.6557 35.7733 73.0023 36.9067 73.0023 38.4V44H70.4423V38.64C70.4423 37.7867 70.2757 37.1333 69.9423 36.68C69.6223 36.2267 69.1223 36 68.4423 36C67.749 36 67.189 36.2533 66.7623 36.76C66.349 37.2667 66.1423 37.9733 66.1423 38.88V44H63.5823V38.64C63.5823 37.7867 63.4157 37.1333 63.0823 36.68C62.749 36.2267 62.2357 36 61.5423 36C60.8623 36 60.309 36.2533 59.8823 36.76C59.469 37.2667 59.2623 37.9733 59.2623 38.88V44H56.7023ZM15.68 58.54C15.2133 58.54 14.8267 58.4 14.52 58.12C14.2267 57.84 14.08 57.4867 14.08 57.06C14.08 56.6333 14.2267 56.2867 14.52 56.02C14.8267 55.74 15.2133 55.6 15.68 55.6C16.1467 55.6 16.5267 55.74 16.82 56.02C17.1267 56.2867 17.28 56.6333 17.28 57.06C17.28 57.4867 17.1267 57.84 16.82 58.12C16.5267 58.4 16.1467 58.54 15.68 58.54ZM14.4 70V60.08H16.96V70H14.4ZM19.632 74.4V60.08H21.912L22.192 61.5C22.512 61.06 22.932 60.6733 23.452 60.34C23.9854 60.0067 24.672 59.84 25.512 59.84C26.4454 59.84 27.2787 60.0667 28.012 60.52C28.7454 60.9733 29.3254 61.5933 29.752 62.38C30.1787 63.1667 30.392 64.06 30.392 65.06C30.392 66.06 30.1787 66.9533 29.752 67.74C29.3254 68.5133 28.7454 69.1267 28.012 69.58C27.2787 70.02 26.4454 70.24 25.512 70.24C24.7654 70.24 24.112 70.1 23.552 69.82C22.992 69.54 22.5387 69.1467 22.192 68.64V74.4H19.632ZM24.972 68C25.7854 68 26.4587 67.7267 26.992 67.18C27.5254 66.6333 27.792 65.9267 27.792 65.06C27.792 64.1933 27.5254 63.48 26.992 62.92C26.4587 62.36 25.7854 62.08 24.972 62.08C24.1454 62.08 23.4654 62.36 22.932 62.92C22.412 63.4667 22.152 64.1733 22.152 65.04C22.152 65.9067 22.412 66.62 22.932 67.18C23.4654 67.7267 24.1454 68 24.972 68ZM36.7789 70.24C35.8989 70.24 35.1256 70.1 34.4589 69.82C33.7922 69.5267 33.2589 69.1267 32.8589 68.62C32.4589 68.1133 32.2189 67.5267 32.1389 66.86H34.7189C34.7989 67.2467 35.0122 67.58 35.3589 67.86C35.7189 68.1267 36.1789 68.26 36.7389 68.26C37.2989 68.26 37.7056 68.1467 37.9589 67.92C38.2256 67.6933 38.3589 67.4333 38.3589 67.14C38.3589 66.7133 38.1722 66.4267 37.7989 66.28C37.4256 66.12 36.9056 65.9667 36.2389 65.82C35.8122 65.7267 35.3789 65.6133 34.9389 65.48C34.4989 65.3467 34.0922 65.18 33.7189 64.98C33.3589 64.7667 33.0656 64.5 32.8389 64.18C32.6122 63.8467 32.4989 63.44 32.4989 62.96C32.4989 62.08 32.8456 61.34 33.5389 60.74C34.2456 60.14 35.2322 59.84 36.4989 59.84C37.6722 59.84 38.6056 60.1133 39.2989 60.66C40.0056 61.2067 40.4256 61.96 40.5589 62.92H38.1389C37.9922 62.1867 37.4389 61.82 36.4789 61.82C35.9989 61.82 35.6256 61.9133 35.3589 62.1C35.1056 62.2867 34.9789 62.52 34.9789 62.8C34.9789 63.0933 35.1722 63.3267 35.5589 63.5C35.9456 63.6733 36.4589 63.8333 37.0989 63.98C37.7922 64.14 38.4256 64.32 38.9989 64.52C39.5856 64.7067 40.0522 64.9933 40.3989 65.38C40.7456 65.7533 40.9189 66.2933 40.9189 67C40.9322 67.6133 40.7722 68.1667 40.4389 68.66C40.1056 69.1533 39.6256 69.54 38.9989 69.82C38.3722 70.1 37.6322 70.24 36.7789 70.24ZM46.9067 70.24C45.6667 70.24 44.7067 69.8533 44.0267 69.08C43.3601 68.3067 43.0267 67.1733 43.0267 65.68V60.08H45.5667V65.44C45.5667 66.2933 45.7401 66.9467 46.0867 67.4C46.4334 67.8533 46.9801 68.08 47.7267 68.08C48.4334 68.08 49.0134 67.8267 49.4667 67.32C49.9334 66.8133 50.1667 66.1067 50.1667 65.2V60.08H52.7267V70H50.4667L50.2667 68.32C49.9601 68.9067 49.5134 69.3733 48.9267 69.72C48.3534 70.0667 47.6801 70.24 46.9067 70.24ZM55.3547 70V60.08H57.6147L57.8347 61.42C58.1547 60.94 58.5747 60.56 59.0947 60.28C59.628 59.9867 60.2414 59.84 60.9347 59.84C62.468 59.84 63.5547 60.4333 64.1947 61.62C64.5547 61.0733 65.0347 60.64 65.6347 60.32C66.248 60 66.9147 59.84 67.6347 59.84C68.928 59.84 69.9214 60.2267 70.6147 61C71.308 61.7733 71.6547 62.9067 71.6547 64.4V70H69.0947V64.64C69.0947 63.7867 68.928 63.1333 68.5947 62.68C68.2747 62.2267 67.7747 62 67.0947 62C66.4014 62 65.8414 62.2533 65.4147 62.76C65.0014 63.2667 64.7947 63.9733 64.7947 64.88V70H62.2347V64.64C62.2347 63.7867 62.068 63.1333 61.7347 62.68C61.4014 62.2267 60.888 62 60.1947 62C59.5147 62 58.9614 62.2533 58.5347 62.76C58.1214 63.2667 57.9147 63.9733 57.9147 64.88V70H55.3547ZM83.4108 70.24C82.4774 70.24 81.6441 70.0133 80.9108 69.56C80.1774 69.1067 79.5974 68.4867 79.1708 67.7C78.7441 66.9133 78.5308 66.02 78.5308 65.02C78.5308 64.02 78.7441 63.1333 79.1708 62.36C79.5974 61.5733 80.1774 60.96 80.9108 60.52C81.6441 60.0667 82.4774 59.84 83.4108 59.84C84.1574 59.84 84.8108 59.98 85.3708 60.26C85.9308 60.54 86.3841 60.9333 86.7308 61.44V55.6H89.2908V70H87.0108L86.7308 68.58C86.4108 69.02 85.9841 69.4067 85.4508 69.74C84.9308 70.0733 84.2508 70.24 83.4108 70.24ZM83.9508 68C84.7774 68 85.4508 67.7267 85.9708 67.18C86.5041 66.62 86.7708 65.9067 86.7708 65.04C86.7708 64.1733 86.5041 63.4667 85.9708 62.92C85.4508 62.36 84.7774 62.08 83.9508 62.08C83.1374 62.08 82.4641 62.3533 81.9308 62.9C81.3974 63.4467 81.1308 64.1533 81.1308 65.02C81.1308 65.8867 81.3974 66.6 81.9308 67.16C82.4641 67.72 83.1374 68 83.9508 68ZM96.6577 70.24C95.6977 70.24 94.831 70.02 94.0577 69.58C93.2977 69.14 92.691 68.5333 92.2377 67.76C91.7977 66.9733 91.5777 66.0667 91.5777 65.04C91.5777 64.0133 91.8043 63.1133 92.2577 62.34C92.711 61.5533 93.3177 60.94 94.0777 60.5C94.851 60.06 95.7177 59.84 96.6777 59.84C97.6243 59.84 98.4777 60.06 99.2377 60.5C100.011 60.94 100.618 61.5533 101.058 62.34C101.511 63.1133 101.738 64.0133 101.738 65.04C101.738 66.0667 101.511 66.9733 101.058 67.76C100.618 68.5333 100.011 69.14 99.2377 69.58C98.4643 70.02 97.6043 70.24 96.6577 70.24ZM96.6577 68.02C97.3243 68.02 97.9043 67.7733 98.3977 67.28C98.891 66.7733 99.1377 66.0267 99.1377 65.04C99.1377 64.0533 98.891 63.3133 98.3977 62.82C97.9043 62.3133 97.331 62.06 96.6777 62.06C95.9977 62.06 95.411 62.3133 94.9177 62.82C94.4377 63.3133 94.1977 64.0533 94.1977 65.04C94.1977 66.0267 94.4377 66.7733 94.9177 67.28C95.411 67.7733 95.991 68.02 96.6577 68.02ZM104.027 70V55.6H106.587V70H104.027ZM113.962 70.24C113.002 70.24 112.136 70.02 111.362 69.58C110.602 69.14 109.996 68.5333 109.542 67.76C109.102 66.9733 108.882 66.0667 108.882 65.04C108.882 64.0133 109.109 63.1133 109.562 62.34C110.016 61.5533 110.622 60.94 111.382 60.5C112.156 60.06 113.022 59.84 113.982 59.84C114.929 59.84 115.782 60.06 116.542 60.5C117.316 60.94 117.922 61.5533 118.362 62.34C118.816 63.1133 119.042 64.0133 119.042 65.04C119.042 66.0667 118.816 66.9733 118.362 67.76C117.922 68.5333 117.316 69.14 116.542 69.58C115.769 70.02 114.909 70.24 113.962 70.24ZM113.962 68.02C114.629 68.02 115.209 67.7733 115.702 67.28C116.196 66.7733 116.442 66.0267 116.442 65.04C116.442 64.0533 116.196 63.3133 115.702 62.82C115.209 62.3133 114.636 62.06 113.982 62.06C113.302 62.06 112.716 62.3133 112.222 62.82C111.742 63.3133 111.502 64.0533 111.502 65.04C111.502 66.0267 111.742 66.7733 112.222 67.28C112.716 67.7733 113.296 68.02 113.962 68.02ZM121.331 70V60.08H123.611L123.851 61.94C124.211 61.3 124.698 60.7933 125.311 60.42C125.938 60.0333 126.671 59.84 127.511 59.84V62.54H126.791C126.231 62.54 125.731 62.6267 125.291 62.8C124.851 62.9733 124.505 63.2733 124.251 63.7C124.011 64.1267 123.891 64.72 123.891 65.48V70H121.331ZM18.4 96.24C17.52 96.24 16.7467 96.1 16.08 95.82C15.4133 95.5267 14.88 95.1267 14.48 94.62C14.08 94.1133 13.84 93.5267 13.76 92.86H16.34C16.42 93.2467 16.6333 93.58 16.98 93.86C17.34 94.1267 17.8 94.26 18.36 94.26C18.92 94.26 19.3267 94.1467 19.58 93.92C19.8467 93.6933 19.98 93.4333 19.98 93.14C19.98 92.7133 19.7933 92.4267 19.42 92.28C19.0467 92.12 18.5267 91.9667 17.86 91.82C17.4333 91.7267 17 91.6133 16.56 91.48C16.12 91.3467 15.7133 91.18 15.34 90.98C14.98 90.7667 14.6867 90.5 14.46 90.18C14.2333 89.8467 14.12 89.44 14.12 88.96C14.12 88.08 14.4667 87.34 15.16 86.74C15.8667 86.14 16.8533 85.84 18.12 85.84C19.2933 85.84 20.2267 86.1133 20.92 86.66C21.6267 87.2067 22.0467 87.96 22.18 88.92H19.76C19.6133 88.1867 19.06 87.82 18.1 87.82C17.62 87.82 17.2467 87.9133 16.98 88.1C16.7267 88.2867 16.6 88.52 16.6 88.8C16.6 89.0933 16.7933 89.3267 17.18 89.5C17.5667 89.6733 18.08 89.8333 18.72 89.98C19.4133 90.14 20.0467 90.32 20.62 90.52C21.2067 90.7067 21.6733 90.9933 22.02 91.38C22.3667 91.7533 22.54 92.2933 22.54 93C22.5533 93.6133 22.3933 94.1667 22.06 94.66C21.7267 95.1533 21.2467 95.54 20.62 95.82C19.9933 96.1 19.2533 96.24 18.4 96.24ZM26.1878 84.54C25.7211 84.54 25.3345 84.4 25.0278 84.12C24.7345 83.84 24.5878 83.4867 24.5878 83.06C24.5878 82.6333 24.7345 82.2867 25.0278 82.02C25.3345 81.74 25.7211 81.6 26.1878 81.6C26.6545 81.6 27.0345 81.74 27.3278 82.02C27.6345 82.2867 27.7878 82.6333 27.7878 83.06C27.7878 83.4867 27.6345 83.84 27.3278 84.12C27.0345 84.4 26.6545 84.54 26.1878 84.54ZM24.9078 96V86.08H27.4678V96H24.9078ZM34.5598 96C33.5198 96 32.6865 95.7467 32.0598 95.24C31.4332 94.7333 31.1198 93.8333 31.1198 92.54V88.22H29.4198V86.08H31.1198L31.4198 83.42H33.6798V86.08H36.3598V88.22H33.6798V92.56C33.6798 93.04 33.7798 93.3733 33.9798 93.56C34.1932 93.7333 34.5532 93.82 35.0598 93.82H36.2998V96H34.5598ZM46.7434 96.24C45.8901 96.24 45.1901 96.1067 44.6434 95.84C44.0968 95.56 43.6901 95.1933 43.4234 94.74C43.1568 94.2867 43.0234 93.7867 43.0234 93.24C43.0234 92.32 43.3834 91.5733 44.1034 91C44.8234 90.4267 45.9034 90.14 47.3434 90.14H49.8634V89.9C49.8634 89.22 49.6701 88.72 49.2834 88.4C48.8968 88.08 48.4168 87.92 47.8434 87.92C47.3234 87.92 46.8701 88.0467 46.4834 88.3C46.0968 88.54 45.8568 88.9 45.7634 89.38H43.2634C43.3301 88.66 43.5701 88.0333 43.9834 87.5C44.4101 86.9667 44.9568 86.56 45.6234 86.28C46.2901 85.9867 47.0368 85.84 47.8634 85.84C49.2768 85.84 50.3901 86.1933 51.2034 86.9C52.0168 87.6067 52.4234 88.6067 52.4234 89.9V96H50.2434L50.0034 94.4C49.7101 94.9333 49.2968 95.3733 48.7634 95.72C48.2434 96.0667 47.5701 96.24 46.7434 96.24ZM47.3234 94.24C48.0568 94.24 48.6234 94 49.0234 93.52C49.4368 93.04 49.6968 92.4467 49.8034 91.74H47.6234C46.9434 91.74 46.4568 91.8667 46.1634 92.12C45.8701 92.36 45.7234 92.66 45.7234 93.02C45.7234 93.4067 45.8701 93.7067 46.1634 93.92C46.4568 94.1333 46.8434 94.24 47.3234 94.24ZM54.8664 96V86.08H57.1264L57.3464 87.42C57.6664 86.94 58.0864 86.56 58.6064 86.28C59.1397 85.9867 59.7531 85.84 60.4464 85.84C61.9797 85.84 63.0664 86.4333 63.7064 87.62C64.0664 87.0733 64.5464 86.64 65.1464 86.32C65.7597 86 66.4264 85.84 67.1464 85.84C68.4397 85.84 69.4331 86.2267 70.1264 87C70.8197 87.7733 71.1664 88.9067 71.1664 90.4V96H68.6064V90.64C68.6064 89.7867 68.4397 89.1333 68.1064 88.68C67.7864 88.2267 67.2864 88 66.6064 88C65.9131 88 65.3531 88.2533 64.9264 88.76C64.5131 89.2667 64.3064 89.9733 64.3064 90.88V96H61.7464V90.64C61.7464 89.7867 61.5797 89.1333 61.2464 88.68C60.9131 88.2267 60.3997 88 59.7064 88C59.0264 88 58.4731 88.2533 58.0464 88.76C57.6331 89.2667 57.4264 89.9733 57.4264 90.88V96H54.8664ZM78.4169 96.24C77.4169 96.24 76.5302 96.0267 75.7569 95.6C74.9835 95.1733 74.3769 94.5733 73.9369 93.8C73.4969 93.0267 73.2769 92.1333 73.2769 91.12C73.2769 90.0933 73.4902 89.18 73.9169 88.38C74.3569 87.58 74.9569 86.96 75.7169 86.52C76.4902 86.0667 77.3969 85.84 78.4369 85.84C79.4102 85.84 80.2702 86.0533 81.0169 86.48C81.7635 86.9067 82.3435 87.4933 82.7569 88.24C83.1835 88.9733 83.3969 89.7933 83.3969 90.7C83.3969 90.8467 83.3902 91 83.3769 91.16C83.3769 91.32 83.3702 91.4867 83.3569 91.66H75.8169C75.8702 92.4333 76.1369 93.04 76.6169 93.48C77.1102 93.92 77.7035 94.14 78.3969 94.14C78.9169 94.14 79.3502 94.0267 79.6969 93.8C80.0569 93.56 80.3235 93.2533 80.4969 92.88H83.0969C82.9102 93.5067 82.5969 94.08 82.1569 94.6C81.7302 95.1067 81.1969 95.5067 80.5569 95.8C79.9302 96.0933 79.2169 96.24 78.4169 96.24ZM78.4369 87.92C77.8102 87.92 77.2569 88.1 76.7769 88.46C76.2969 88.8067 75.9902 89.34 75.8569 90.06H80.7969C80.7569 89.4067 80.5169 88.8867 80.0769 88.5C79.6369 88.1133 79.0902 87.92 78.4369 87.92ZM89.7942 96C88.7542 96 87.9209 95.7467 87.2942 95.24C86.6676 94.7333 86.3542 93.8333 86.3542 92.54V88.22H84.6542V86.08H86.3542L86.6542 83.42H88.9142V86.08H91.5942V88.22H88.9142V92.56C88.9142 93.04 89.0142 93.3733 89.2142 93.56C89.4276 93.7333 89.7876 93.82 90.2942 93.82H91.5342V96H89.7942ZM93.2995 98.32L94.4395 93.34H96.9195L94.9795 98.32H93.2995ZM19.16 122.24C18.1467 122.24 17.2533 122.02 16.48 121.58C15.7067 121.14 15.0933 120.527 14.64 119.74C14.2 118.953 13.98 118.053 13.98 117.04C13.98 116.027 14.2 115.127 14.64 114.34C15.0933 113.553 15.7067 112.94 16.48 112.5C17.2533 112.06 18.1467 111.84 19.16 111.84C20.4267 111.84 21.4933 112.173 22.36 112.84C23.2267 113.493 23.78 114.4 24.02 115.56H21.32C21.1867 115.08 20.92 114.707 20.52 114.44C20.1333 114.16 19.6733 114.02 19.14 114.02C18.4333 114.02 17.8333 114.287 17.34 114.82C16.8467 115.353 16.6 116.093 16.6 117.04C16.6 117.987 16.8467 118.727 17.34 119.26C17.8333 119.793 18.4333 120.06 19.14 120.06C19.6733 120.06 20.1333 119.927 20.52 119.66C20.92 119.393 21.1867 119.013 21.32 118.52H24.02C23.78 119.64 23.2267 120.54 22.36 121.22C21.4933 121.9 20.4267 122.24 19.16 122.24ZM31.0522 122.24C30.0922 122.24 29.2255 122.02 28.4522 121.58C27.6922 121.14 27.0855 120.533 26.6322 119.76C26.1922 118.973 25.9722 118.067 25.9722 117.04C25.9722 116.013 26.1989 115.113 26.6522 114.34C27.1055 113.553 27.7122 112.94 28.4722 112.5C29.2455 112.06 30.1122 111.84 31.0722 111.84C32.0189 111.84 32.8722 112.06 33.6322 112.5C34.4055 112.94 35.0122 113.553 35.4522 114.34C35.9055 115.113 36.1322 116.013 36.1322 117.04C36.1322 118.067 35.9055 118.973 35.4522 119.76C35.0122 120.533 34.4055 121.14 33.6322 121.58C32.8589 122.02 31.9989 122.24 31.0522 122.24ZM31.0522 120.02C31.7189 120.02 32.2989 119.773 32.7922 119.28C33.2855 118.773 33.5322 118.027 33.5322 117.04C33.5322 116.053 33.2855 115.313 32.7922 114.82C32.2989 114.313 31.7255 114.06 31.0722 114.06C30.3922 114.06 29.8055 114.313 29.3122 114.82C28.8322 115.313 28.5922 116.053 28.5922 117.04C28.5922 118.027 28.8322 118.773 29.3122 119.28C29.8055 119.773 30.3855 120.02 31.0522 120.02ZM38.4211 122V112.08H40.6811L40.8811 113.76C41.1878 113.173 41.6278 112.707 42.2011 112.36C42.7878 112.013 43.4744 111.84 44.2611 111.84C45.4878 111.84 46.4411 112.227 47.1211 113C47.8011 113.773 48.1411 114.907 48.1411 116.4V122H45.5811V116.64C45.5811 115.787 45.4078 115.133 45.0611 114.68C44.7144 114.227 44.1744 114 43.4411 114C42.7211 114 42.1278 114.253 41.6611 114.76C41.2078 115.267 40.9811 115.973 40.9811 116.88V122H38.4211ZM54.6891 122.24C53.8091 122.24 53.0357 122.1 52.3691 121.82C51.7024 121.527 51.1691 121.127 50.7691 120.62C50.3691 120.113 50.1291 119.527 50.0491 118.86H52.6291C52.7091 119.247 52.9224 119.58 53.2691 119.86C53.6291 120.127 54.0891 120.26 54.6491 120.26C55.2091 120.26 55.6157 120.147 55.8691 119.92C56.1357 119.693 56.2691 119.433 56.2691 119.14C56.2691 118.713 56.0824 118.427 55.7091 118.28C55.3357 118.12 54.8157 117.967 54.1491 117.82C53.7224 117.727 53.2891 117.613 52.8491 117.48C52.4091 117.347 52.0024 117.18 51.6291 116.98C51.2691 116.767 50.9757 116.5 50.7491 116.18C50.5224 115.847 50.4091 115.44 50.4091 114.96C50.4091 114.08 50.7557 113.34 51.4491 112.74C52.1557 112.14 53.1424 111.84 54.4091 111.84C55.5824 111.84 56.5157 112.113 57.2091 112.66C57.9157 113.207 58.3357 113.96 58.4691 114.92H56.0491C55.9024 114.187 55.3491 113.82 54.3891 113.82C53.9091 113.82 53.5357 113.913 53.2691 114.1C53.0157 114.287 52.8891 114.52 52.8891 114.8C52.8891 115.093 53.0824 115.327 53.4691 115.5C53.8557 115.673 54.3691 115.833 55.0091 115.98C55.7024 116.14 56.3357 116.32 56.9091 116.52C57.4957 116.707 57.9624 116.993 58.3091 117.38C58.6557 117.753 58.8291 118.293 58.8291 119C58.8424 119.613 58.6824 120.167 58.3491 120.66C58.0157 121.153 57.5357 121.54 56.9091 121.82C56.2824 122.1 55.5424 122.24 54.6891 122.24ZM65.9169 122.24C64.9169 122.24 64.0302 122.027 63.2569 121.6C62.4835 121.173 61.8769 120.573 61.4369 119.8C60.9969 119.027 60.7769 118.133 60.7769 117.12C60.7769 116.093 60.9902 115.18 61.4169 114.38C61.8569 113.58 62.4569 112.96 63.2169 112.52C63.9902 112.067 64.8969 111.84 65.9369 111.84C66.9102 111.84 67.7702 112.053 68.5169 112.48C69.2635 112.907 69.8435 113.493 70.2569 114.24C70.6835 114.973 70.8969 115.793 70.8969 116.7C70.8969 116.847 70.8902 117 70.8769 117.16C70.8769 117.32 70.8702 117.487 70.8569 117.66H63.3169C63.3702 118.433 63.6369 119.04 64.1169 119.48C64.6102 119.92 65.2035 120.14 65.8969 120.14C66.4169 120.14 66.8502 120.027 67.1969 119.8C67.5569 119.56 67.8235 119.253 67.9969 118.88H70.5969C70.4102 119.507 70.0969 120.08 69.6569 120.6C69.2302 121.107 68.6969 121.507 68.0569 121.8C67.4302 122.093 66.7169 122.24 65.9169 122.24ZM65.9369 113.92C65.3102 113.92 64.7569 114.1 64.2769 114.46C63.7969 114.807 63.4902 115.34 63.3569 116.06H68.2969C68.2569 115.407 68.0169 114.887 67.5769 114.5C67.1369 114.113 66.5902 113.92 65.9369 113.92ZM77.91 122.24C76.8967 122.24 76.0033 122.02 75.23 121.58C74.4567 121.14 73.8433 120.527 73.39 119.74C72.95 118.953 72.73 118.053 72.73 117.04C72.73 116.027 72.95 115.127 73.39 114.34C73.8433 113.553 74.4567 112.94 75.23 112.5C76.0033 112.06 76.8967 111.84 77.91 111.84C79.1767 111.84 80.2433 112.173 81.11 112.84C81.9767 113.493 82.53 114.4 82.77 115.56H80.07C79.9367 115.08 79.67 114.707 79.27 114.44C78.8833 114.16 78.4233 114.02 77.89 114.02C77.1833 114.02 76.5833 114.287 76.09 114.82C75.5967 115.353 75.35 116.093 75.35 117.04C75.35 117.987 75.5967 118.727 76.09 119.26C76.5833 119.793 77.1833 120.06 77.89 120.06C78.4233 120.06 78.8833 119.927 79.27 119.66C79.67 119.393 79.9367 119.013 80.07 118.52H82.77C82.53 119.64 81.9767 120.54 81.11 121.22C80.2433 121.9 79.1767 122.24 77.91 122.24ZM89.3255 122C88.2855 122 87.4521 121.747 86.8255 121.24C86.1988 120.733 85.8855 119.833 85.8855 118.54V114.22H84.1855V112.08H85.8855L86.1855 109.42H88.4455V112.08H91.1255V114.22H88.4455V118.56C88.4455 119.04 88.5455 119.373 88.7455 119.56C88.9588 119.733 89.3188 119.82 89.8255 119.82H91.0655V122H89.3255ZM97.8895 122.24C96.8895 122.24 96.0029 122.027 95.2295 121.6C94.4562 121.173 93.8495 120.573 93.4095 119.8C92.9695 119.027 92.7495 118.133 92.7495 117.12C92.7495 116.093 92.9629 115.18 93.3895 114.38C93.8295 113.58 94.4295 112.96 95.1895 112.52C95.9629 112.067 96.8695 111.84 97.9095 111.84C98.8829 111.84 99.7429 112.053 100.49 112.48C101.236 112.907 101.816 113.493 102.23 114.24C102.656 114.973 102.87 115.793 102.87 116.7C102.87 116.847 102.863 117 102.85 117.16C102.85 117.32 102.843 117.487 102.83 117.66H95.2895C95.3429 118.433 95.6095 119.04 96.0895 119.48C96.5829 119.92 97.1762 120.14 97.8695 120.14C98.3895 120.14 98.8229 120.027 99.1695 119.8C99.5295 119.56 99.7962 119.253 99.9695 118.88H102.57C102.383 119.507 102.07 120.08 101.63 120.6C101.203 121.107 100.67 121.507 100.03 121.8C99.4029 122.093 98.6895 122.24 97.8895 122.24ZM97.9095 113.92C97.2829 113.92 96.7295 114.1 96.2495 114.46C95.7695 114.807 95.4629 115.34 95.3295 116.06H100.27C100.23 115.407 99.9895 114.887 99.5495 114.5C99.1095 114.113 98.5629 113.92 97.9095 113.92ZM109.267 122C108.227 122 107.394 121.747 106.767 121.24C106.14 120.733 105.827 119.833 105.827 118.54V114.22H104.127V112.08H105.827L106.127 109.42H108.387V112.08H111.067V114.22H108.387V118.56C108.387 119.04 108.487 119.373 108.687 119.56C108.9 119.733 109.26 119.82 109.767 119.82H111.007V122H109.267ZM116.985 122.24C115.745 122.24 114.785 121.853 114.105 121.08C113.438 120.307 113.105 119.173 113.105 117.68V112.08H115.645V117.44C115.645 118.293 115.818 118.947 116.165 119.4C116.512 119.853 117.058 120.08 117.805 120.08C118.512 120.08 119.092 119.827 119.545 119.32C120.012 118.813 120.245 118.107 120.245 117.2V112.08H122.805V122H120.545L120.345 120.32C120.038 120.907 119.592 121.373 119.005 121.72C118.432 122.067 117.758 122.24 116.985 122.24ZM125.433 122V112.08H127.713L127.953 113.94C128.313 113.3 128.799 112.793 129.413 112.42C130.039 112.033 130.773 111.84 131.613 111.84V114.54H130.893C130.333 114.54 129.833 114.627 129.393 114.8C128.953 114.973 128.606 115.273 128.353 115.7C128.113 116.127 127.993 116.72 127.993 117.48V122H125.433Z" fill="#545454"/>
</svg>
