<svg width="138" height="30" viewBox="0 0 138 30" fill="none" xmlns="http://www.w3.org/2000/svg">
<path d="M0.72 29V0.999998H5.84L19 20.72V0.999998H24.12V29H19L5.84 9.32V29H0.72ZM38.9481 29.48C37.0281 29.48 35.2948 29.04 33.7481 28.16C32.2281 27.28 31.0148 26.0667 30.1081 24.52C29.2281 22.9467 28.7881 21.1333 28.7881 19.08C28.7881 17.0267 29.2415 15.2267 30.1481 13.68C31.0548 12.1067 32.2681 10.88 33.7881 10C35.3348 9.12 37.0681 8.68 38.9881 8.68C40.8815 8.68 42.5881 9.12 44.1081 10C45.6548 10.88 46.8681 12.1067 47.7481 13.68C48.6548 15.2267 49.1081 17.0267 49.1081 19.08C49.1081 21.1333 48.6548 22.9467 47.7481 24.52C46.8681 26.0667 45.6548 27.28 44.1081 28.16C42.5615 29.04 40.8415 29.48 38.9481 29.48ZM38.9481 25.04C40.2815 25.04 41.4415 24.5467 42.4281 23.56C43.4148 22.5467 43.9081 21.0533 43.9081 19.08C43.9081 17.1067 43.4148 15.6267 42.4281 14.64C41.4415 13.6267 40.2948 13.12 38.9881 13.12C37.6281 13.12 36.4548 13.6267 35.4681 14.64C34.5081 15.6267 34.0281 17.1067 34.0281 19.08C34.0281 21.0533 34.5081 22.5467 35.4681 23.56C36.4548 24.5467 37.6148 25.04 38.9481 25.04ZM61.7447 29C59.6647 29 57.998 28.4933 56.7447 27.48C55.4914 26.4667 54.8647 24.6667 54.8647 22.08V13.44H51.4647V9.16H54.8647L55.4647 3.84H59.9847V9.16H65.3447V13.44H59.9847V22.12C59.9847 23.08 60.1847 23.7467 60.5847 24.12C61.0114 24.4667 61.7314 24.64 62.7447 24.64H65.2247V29H61.7447ZM72.5006 6.08C71.5673 6.08 70.794 5.8 70.1806 5.24C69.594 4.68 69.3006 3.97333 69.3006 3.12C69.3006 2.26667 69.594 1.57333 70.1806 1.04C70.794 0.479998 71.5673 0.199999 72.5006 0.199999C73.434 0.199999 74.194 0.479998 74.7806 1.04C75.394 1.57333 75.7006 2.26667 75.7006 3.12C75.7006 3.97333 75.394 4.68 74.7806 5.24C74.194 5.8 73.434 6.08 72.5006 6.08ZM69.9406 29V9.16H75.0606V29H69.9406ZM89.9247 29.48C88.0047 29.48 86.2714 29.04 84.7247 28.16C83.2047 27.28 81.9914 26.0667 81.0847 24.52C80.2047 22.9467 79.7647 21.1333 79.7647 19.08C79.7647 17.0267 80.218 15.2267 81.1247 13.68C82.0314 12.1067 83.2447 10.88 84.7647 10C86.3114 9.12 88.0447 8.68 89.9647 8.68C91.858 8.68 93.5647 9.12 95.0847 10C96.6314 10.88 97.8447 12.1067 98.7247 13.68C99.6314 15.2267 100.085 17.0267 100.085 19.08C100.085 21.1333 99.6314 22.9467 98.7247 24.52C97.8447 26.0667 96.6314 27.28 95.0847 28.16C93.538 29.04 91.818 29.48 89.9247 29.48ZM89.9247 25.04C91.258 25.04 92.418 24.5467 93.4047 23.56C94.3914 22.5467 94.8847 21.0533 94.8847 19.08C94.8847 17.1067 94.3914 15.6267 93.4047 14.64C92.418 13.6267 91.2714 13.12 89.9647 13.12C88.6047 13.12 87.4314 13.6267 86.4447 14.64C85.4847 15.6267 85.0047 17.1067 85.0047 19.08C85.0047 21.0533 85.4847 22.5467 86.4447 23.56C87.4314 24.5467 88.5914 25.04 89.9247 25.04ZM104.663 29V9.16H109.183L109.623 11.84C110.263 10.88 111.103 10.12 112.143 9.56C113.209 8.97333 114.436 8.68 115.823 8.68C118.889 8.68 121.063 9.86667 122.343 12.24C123.063 11.1467 124.023 10.28 125.223 9.64C126.449 9 127.783 8.68 129.223 8.68C131.809 8.68 133.796 9.45333 135.183 11C136.569 12.5467 137.263 14.8133 137.263 17.8V29H132.143V18.28C132.143 16.5733 131.809 15.2667 131.143 14.36C130.503 13.4533 129.503 13 128.143 13C126.756 13 125.636 13.5067 124.783 14.52C123.956 15.5333 123.543 16.9467 123.543 18.76V29H118.423V18.28C118.423 16.5733 118.089 15.2667 117.423 14.36C116.756 13.4533 115.729 13 114.343 13C112.983 13 111.876 13.5067 111.023 14.52C110.196 15.5333 109.783 16.9467 109.783 18.76V29H104.663Z" fill="#545454"/>
</svg>
