<svg width="1037" height="39" viewBox="0 0 1037 39" fill="none" xmlns="http://www.w3.org/2000/svg">
<path d="M8.4 29V4.44H0.12V0.999998H20.88V4.44H12.64V29H8.4ZM24.6878 29V0.199999H28.9278V12.36C29.5945 11.2133 30.5145 10.32 31.6878 9.68C32.8878 9.01333 34.2078 8.68 35.6478 8.68C38.0211 8.68 39.8878 9.42667 41.2478 10.92C42.6078 12.4133 43.2878 14.64 43.2878 17.6V29H39.0878V18.04C39.0878 14.2 37.5545 12.28 34.4878 12.28C32.8878 12.28 31.5545 12.84 30.4878 13.96C29.4478 15.08 28.9278 16.68 28.9278 18.76V29H24.6878ZM57.5616 29.48C55.6149 29.48 53.8816 29.0533 52.3616 28.2C50.8682 27.32 49.6949 26.1067 48.8416 24.56C47.9882 23.0133 47.5616 21.2133 47.5616 19.16C47.5616 17.08 47.9749 15.2533 48.8016 13.68C49.6549 12.1067 50.8282 10.88 52.3216 10C53.8416 9.12 55.6016 8.68 57.6016 8.68C59.5482 8.68 61.2416 9.12 62.6816 10C64.1216 10.8533 65.2416 12 66.0416 13.44C66.8416 14.88 67.2416 16.4667 67.2416 18.2C67.2416 18.4667 67.2282 18.76 67.2016 19.08C67.2016 19.3733 67.1882 19.7067 67.1616 20.08H51.7216C51.8549 22 52.4816 23.4667 53.6016 24.48C54.7482 25.4667 56.0682 25.96 57.5616 25.96C58.7616 25.96 59.7616 25.6933 60.5616 25.16C61.3882 24.6 62.0016 23.8533 62.4016 22.92H66.6416C66.1082 24.7867 65.0416 26.3467 63.4416 27.6C61.8682 28.8533 59.9082 29.48 57.5616 29.48ZM57.5616 12.16C56.1482 12.16 54.8949 12.5867 53.8016 13.44C52.7082 14.2667 52.0416 15.52 51.8016 17.2H63.0016C62.9216 15.6533 62.3749 14.4267 61.3616 13.52C60.3482 12.6133 59.0816 12.16 57.5616 12.16ZM90.7591 29.48C88.8391 29.48 87.1457 29.0267 85.6791 28.12C84.2124 27.2133 83.0657 25.9733 82.2391 24.4C81.4124 22.8267 80.9991 21.04 80.9991 19.04C80.9991 17.04 81.4124 15.2667 82.2391 13.72C83.0657 12.1467 84.2124 10.92 85.6791 10.04C87.1724 9.13333 88.8791 8.68 90.7991 8.68C92.3724 8.68 93.7457 8.98667 94.9191 9.6C96.1191 10.2133 97.0524 11.08 97.7191 12.2V0.199999H101.959V29H98.1591L97.7191 25.92C97.0791 26.8533 96.1991 27.68 95.0791 28.4C93.9591 29.12 92.5191 29.48 90.7591 29.48ZM91.5191 25.8C93.3324 25.8 94.8124 25.1733 95.9591 23.92C97.1324 22.6667 97.7191 21.0533 97.7191 19.08C97.7191 17.08 97.1324 15.4667 95.9591 14.24C94.8124 12.9867 93.3324 12.36 91.5191 12.36C89.7057 12.36 88.2124 12.9867 87.0391 14.24C85.8657 15.4667 85.2791 17.08 85.2791 19.08C85.2791 20.3867 85.5457 21.5467 86.0791 22.56C86.6124 23.5733 87.3457 24.3733 88.2791 24.96C89.2391 25.52 90.3191 25.8 91.5191 25.8ZM116.585 29.48C114.692 29.48 112.985 29.0533 111.465 28.2C109.972 27.32 108.785 26.1067 107.905 24.56C107.025 22.9867 106.585 21.16 106.585 19.08C106.585 17 107.025 15.1867 107.905 13.64C108.812 12.0667 110.025 10.8533 111.545 10C113.065 9.12 114.758 8.68 116.625 8.68C118.518 8.68 120.212 9.12 121.705 10C123.225 10.8533 124.425 12.0667 125.305 13.64C126.212 15.1867 126.665 17 126.665 19.08C126.665 21.16 126.212 22.9867 125.305 24.56C124.425 26.1067 123.225 27.32 121.705 28.2C120.185 29.0533 118.478 29.48 116.585 29.48ZM116.585 25.84C117.598 25.84 118.532 25.5867 119.385 25.08C120.265 24.5733 120.972 23.8267 121.505 22.84C122.038 21.8267 122.305 20.5733 122.305 19.08C122.305 17.5867 122.038 16.3467 121.505 15.36C120.998 14.3467 120.305 13.5867 119.425 13.08C118.572 12.5733 117.638 12.32 116.625 12.32C115.612 12.32 114.665 12.5733 113.785 13.08C112.932 13.5867 112.238 14.3467 111.705 15.36C111.172 16.3467 110.905 17.5867 110.905 19.08C110.905 20.5733 111.172 21.8267 111.705 22.84C112.238 23.8267 112.932 24.5733 113.785 25.08C114.638 25.5867 115.572 25.84 116.585 25.84ZM140.65 29.48C138.704 29.48 136.957 29.04 135.41 28.16C133.89 27.28 132.69 26.0667 131.81 24.52C130.957 22.9467 130.53 21.1333 130.53 19.08C130.53 17.0267 130.957 15.2267 131.81 13.68C132.69 12.1067 133.89 10.88 135.41 10C136.957 9.12 138.704 8.68 140.65 8.68C143.104 8.68 145.157 9.32 146.81 10.6C148.49 11.88 149.57 13.6133 150.05 15.8H145.61C145.344 14.7067 144.757 13.8533 143.85 13.24C142.944 12.6267 141.877 12.32 140.65 12.32C139.61 12.32 138.65 12.5867 137.77 13.12C136.89 13.6267 136.184 14.3867 135.65 15.4C135.117 16.3867 134.85 17.6133 134.85 19.08C134.85 20.5467 135.117 21.7867 135.65 22.8C136.184 23.7867 136.89 24.5467 137.77 25.08C138.65 25.6133 139.61 25.88 140.65 25.88C141.877 25.88 142.944 25.5733 143.85 24.96C144.757 24.3467 145.344 23.48 145.61 22.36H150.05C149.597 24.4933 148.53 26.2133 146.85 27.52C145.17 28.8267 143.104 29.48 140.65 29.48ZM161.969 29.48C159.569 29.48 157.675 28.7333 156.289 27.24C154.929 25.7467 154.249 23.52 154.249 20.56V9.16H158.489V20.12C158.489 23.96 160.062 25.88 163.209 25.88C164.782 25.88 166.075 25.32 167.089 24.2C168.102 23.08 168.609 21.48 168.609 19.4V9.16H172.849V29H169.089L168.769 25.52C168.155 26.7467 167.249 27.72 166.049 28.44C164.875 29.1333 163.515 29.48 161.969 29.48ZM178.243 29V9.16H182.003L182.363 11.96C183.003 10.9467 183.843 10.1467 184.883 9.56C185.949 8.97333 187.176 8.68 188.563 8.68C191.709 8.68 193.896 9.92 195.123 12.4C195.843 11.2533 196.803 10.3467 198.003 9.68C199.229 9.01333 200.549 8.68 201.963 8.68C204.443 8.68 206.389 9.42667 207.803 10.92C209.216 12.4133 209.923 14.64 209.923 17.6V29H205.683V18.04C205.683 14.2 204.216 12.28 201.283 12.28C199.789 12.28 198.563 12.84 197.602 13.96C196.669 15.08 196.203 16.68 196.203 18.76V29H191.963V18.04C191.963 14.2 190.483 12.28 187.523 12.28C186.056 12.28 184.843 12.84 183.883 13.96C182.949 15.08 182.483 16.68 182.483 18.76V29H178.243ZM224.163 29.48C222.216 29.48 220.483 29.0533 218.963 28.2C217.47 27.32 216.296 26.1067 215.443 24.56C214.59 23.0133 214.163 21.2133 214.163 19.16C214.163 17.08 214.576 15.2533 215.403 13.68C216.256 12.1067 217.43 10.88 218.923 10C220.443 9.12 222.203 8.68 224.203 8.68C226.15 8.68 227.843 9.12 229.283 10C230.723 10.8533 231.843 12 232.643 13.44C233.443 14.88 233.843 16.4667 233.843 18.2C233.843 18.4667 233.83 18.76 233.803 19.08C233.803 19.3733 233.79 19.7067 233.763 20.08H218.323C218.456 22 219.083 23.4667 220.203 24.48C221.35 25.4667 222.67 25.96 224.163 25.96C225.363 25.96 226.363 25.6933 227.163 25.16C227.99 24.6 228.603 23.8533 229.003 22.92H233.243C232.71 24.7867 231.643 26.3467 230.043 27.6C228.47 28.8533 226.51 29.48 224.163 29.48ZM224.163 12.16C222.75 12.16 221.496 12.5867 220.403 13.44C219.31 14.2667 218.643 15.52 218.403 17.2H229.603C229.523 15.6533 228.976 14.4267 227.963 13.52C226.95 12.6133 225.683 12.16 224.163 12.16ZM238.243 29V9.16H242.003L242.323 12.64C242.936 11.4133 243.829 10.4533 245.003 9.76C246.203 9.04 247.576 8.68 249.123 8.68C251.523 8.68 253.403 9.42667 254.763 10.92C256.149 12.4133 256.843 14.64 256.843 17.6V29H252.643V18.04C252.643 14.2 251.069 12.28 247.923 12.28C246.349 12.28 245.043 12.84 244.003 13.96C242.989 15.08 242.483 16.68 242.483 18.76V29H238.243ZM270.156 29C268.21 29 266.663 28.5333 265.516 27.6C264.37 26.64 263.796 24.9467 263.796 22.52V12.72H260.396V9.16H263.796L264.316 4.12H268.036V9.16H273.636V12.72H268.036V22.52C268.036 23.6133 268.263 24.3733 268.716 24.8C269.196 25.2 270.01 25.4 271.156 25.4H273.436V29H270.156ZM297.366 29.48C295.42 29.48 293.686 29.0533 292.166 28.2C290.673 27.32 289.5 26.1067 288.646 24.56C287.793 23.0133 287.366 21.2133 287.366 19.16C287.366 17.08 287.78 15.2533 288.606 13.68C289.46 12.1067 290.633 10.88 292.126 10C293.646 9.12 295.406 8.68 297.406 8.68C299.353 8.68 301.046 9.12 302.486 10C303.926 10.8533 305.046 12 305.846 13.44C306.646 14.88 307.046 16.4667 307.046 18.2C307.046 18.4667 307.033 18.76 307.006 19.08C307.006 19.3733 306.993 19.7067 306.966 20.08H291.526C291.66 22 292.286 23.4667 293.406 24.48C294.553 25.4667 295.873 25.96 297.366 25.96C298.566 25.96 299.566 25.6933 300.366 25.16C301.193 24.6 301.806 23.8533 302.206 22.92H306.446C305.913 24.7867 304.846 26.3467 303.246 27.6C301.673 28.8533 299.713 29.48 297.366 29.48ZM297.366 12.16C295.953 12.16 294.7 12.5867 293.606 13.44C292.513 14.2667 291.846 15.52 291.606 17.2H302.806C302.726 15.6533 302.18 14.4267 301.166 13.52C300.153 12.6133 298.886 12.16 297.366 12.16ZM320.486 29.48C318.566 29.48 316.872 29.0267 315.406 28.12C313.939 27.2133 312.792 25.9733 311.966 24.4C311.139 22.8267 310.726 21.04 310.726 19.04C310.726 17.04 311.139 15.2667 311.966 13.72C312.792 12.1467 313.939 10.92 315.406 10.04C316.899 9.13333 318.606 8.68 320.526 8.68C322.099 8.68 323.472 8.98667 324.646 9.6C325.846 10.2133 326.779 11.08 327.446 12.2V0.199999H331.686V29H327.886L327.446 25.92C326.806 26.8533 325.926 27.68 324.806 28.4C323.686 29.12 322.246 29.48 320.486 29.48ZM321.246 25.8C323.059 25.8 324.539 25.1733 325.686 23.92C326.859 22.6667 327.446 21.0533 327.446 19.08C327.446 17.08 326.859 15.4667 325.686 14.24C324.539 12.9867 323.059 12.36 321.246 12.36C319.432 12.36 317.939 12.9867 316.766 14.24C315.592 15.4667 315.006 17.08 315.006 19.08C315.006 20.3867 315.272 21.5467 315.806 22.56C316.339 23.5733 317.072 24.3733 318.006 24.96C318.966 25.52 320.046 25.8 321.246 25.8ZM339.432 5.4C338.632 5.4 337.965 5.16 337.432 4.68C336.925 4.17333 336.672 3.54667 336.672 2.8C336.672 2.05333 336.925 1.44 337.432 0.959999C337.965 0.453332 338.632 0.199999 339.432 0.199999C340.232 0.199999 340.885 0.453332 341.392 0.959999C341.925 1.44 342.192 2.05333 342.192 2.8C342.192 3.54667 341.925 4.17333 341.392 4.68C340.885 5.16 340.232 5.4 339.432 5.4ZM337.312 29V9.16H341.552V29H337.312ZM355.469 29C353.522 29 351.975 28.5333 350.829 27.6C349.682 26.64 349.109 24.9467 349.109 22.52V12.72H345.709V9.16H349.109L349.629 4.12H353.349V9.16H358.949V12.72H353.349V22.52C353.349 23.6133 353.575 24.3733 354.029 24.8C354.509 25.2 355.322 25.4 356.469 25.4H358.749V29H355.469ZM365.721 5.4C364.921 5.4 364.254 5.16 363.721 4.68C363.214 4.17333 362.961 3.54667 362.961 2.8C362.961 2.05333 363.214 1.44 363.721 0.959999C364.254 0.453332 364.921 0.199999 365.721 0.199999C366.521 0.199999 367.174 0.453332 367.681 0.959999C368.214 1.44 368.481 2.05333 368.481 2.8C368.481 3.54667 368.214 4.17333 367.681 4.68C367.174 5.16 366.521 5.4 365.721 5.4ZM363.601 29V9.16H367.841V29H363.601ZM373.438 29V9.16H377.198L377.518 12.64C378.131 11.4133 379.024 10.4533 380.198 9.76C381.398 9.04 382.771 8.68 384.318 8.68C386.718 8.68 388.598 9.42667 389.958 10.92C391.344 12.4133 392.038 14.64 392.038 17.6V29H387.838V18.04C387.838 14.2 386.264 12.28 383.118 12.28C381.544 12.28 380.238 12.84 379.198 13.96C378.184 15.08 377.678 16.68 377.678 18.76V29H373.438ZM405.152 22.92C404.112 22.92 403.152 22.8 402.272 22.56L400.552 24.24C400.845 24.4267 401.205 24.5867 401.632 24.72C402.058 24.8533 402.658 24.9733 403.432 25.08C404.205 25.1867 405.258 25.2933 406.592 25.4C409.232 25.64 411.138 26.28 412.312 27.32C413.485 28.3333 414.072 29.6933 414.072 31.4C414.072 32.5733 413.752 33.68 413.112 34.72C412.498 35.7867 411.525 36.64 410.192 37.28C408.885 37.9467 407.205 38.28 405.152 38.28C402.378 38.28 400.125 37.7467 398.392 36.68C396.685 35.64 395.832 34.0533 395.832 31.92C395.832 31.0933 396.045 30.2667 396.472 29.44C396.925 28.64 397.632 27.88 398.592 27.16C398.032 26.92 397.538 26.6667 397.112 26.4C396.712 26.1067 396.352 25.8133 396.032 25.52V24.56L399.472 21.04C397.925 19.7067 397.152 17.96 397.152 15.8C397.152 14.4933 397.458 13.3067 398.072 12.24C398.712 11.1467 399.632 10.28 400.832 9.64C402.032 9 403.472 8.68 405.152 8.68C406.272 8.68 407.312 8.84 408.272 9.16H415.672V11.96L412.152 12.16C412.792 13.2533 413.112 14.4667 413.112 15.8C413.112 17.1333 412.792 18.3333 412.152 19.4C411.538 20.4667 410.632 21.32 409.432 21.96C408.258 22.6 406.832 22.92 405.152 22.92ZM405.152 19.6C406.378 19.6 407.365 19.28 408.112 18.64C408.885 17.9733 409.272 17.04 409.272 15.84C409.272 14.6133 408.885 13.68 408.112 13.04C407.365 12.4 406.378 12.08 405.152 12.08C403.898 12.08 402.885 12.4 402.112 13.04C401.365 13.68 400.992 14.6133 400.992 15.84C400.992 17.04 401.365 17.9733 402.112 18.64C402.885 19.28 403.898 19.6 405.152 19.6ZM399.832 31.52C399.832 32.6667 400.338 33.52 401.352 34.08C402.365 34.6667 403.632 34.96 405.152 34.96C406.618 34.96 407.805 34.64 408.712 34C409.618 33.3867 410.072 32.56 410.072 31.52C410.072 30.7467 409.765 30.08 409.152 29.52C408.538 28.9867 407.378 28.6533 405.672 28.52C404.392 28.44 403.258 28.32 402.272 28.16C401.338 28.6667 400.698 29.2133 400.352 29.8C400.005 30.3867 399.832 30.96 399.832 31.52ZM437.452 29.48C434.945 29.48 432.878 28.8667 431.252 27.64C429.625 26.4133 428.692 24.7867 428.452 22.76H432.732C432.945 23.6667 433.452 24.4533 434.252 25.12C435.052 25.76 436.105 26.08 437.412 26.08C438.692 26.08 439.625 25.8133 440.212 25.28C440.798 24.7467 441.092 24.1333 441.092 23.44C441.092 22.4267 440.678 21.7467 439.852 21.4C439.052 21.0267 437.932 20.6933 436.492 20.4C435.372 20.16 434.252 19.84 433.132 19.44C432.038 19.04 431.118 18.48 430.372 17.76C429.652 17.0133 429.292 16.0133 429.292 14.76C429.292 13.0267 429.958 11.5867 431.292 10.44C432.625 9.26667 434.492 8.68 436.892 8.68C439.105 8.68 440.892 9.21333 442.252 10.28C443.638 11.3467 444.452 12.8533 444.692 14.8H440.612C440.478 13.9467 440.078 13.28 439.412 12.8C438.772 12.32 437.905 12.08 436.812 12.08C435.745 12.08 434.918 12.3067 434.332 12.76C433.745 13.1867 433.452 13.7467 433.452 14.44C433.452 15.1333 433.852 15.68 434.652 16.08C435.478 16.48 436.558 16.84 437.892 17.16C439.225 17.4533 440.452 17.8 441.572 18.2C442.718 18.5733 443.638 19.1333 444.332 19.88C445.025 20.6267 445.372 21.72 445.372 23.16C445.398 24.9733 444.692 26.48 443.252 27.68C441.838 28.88 439.905 29.48 437.452 29.48ZM459.28 29.48C457.387 29.48 455.68 29.0533 454.16 28.2C452.667 27.32 451.48 26.1067 450.6 24.56C449.72 22.9867 449.28 21.16 449.28 19.08C449.28 17 449.72 15.1867 450.6 13.64C451.507 12.0667 452.72 10.8533 454.24 10C455.76 9.12 457.454 8.68 459.32 8.68C461.214 8.68 462.907 9.12 464.4 10C465.92 10.8533 467.12 12.0667 468 13.64C468.907 15.1867 469.36 17 469.36 19.08C469.36 21.16 468.907 22.9867 468 24.56C467.12 26.1067 465.92 27.32 464.4 28.2C462.88 29.0533 461.174 29.48 459.28 29.48ZM459.28 25.84C460.294 25.84 461.227 25.5867 462.08 25.08C462.96 24.5733 463.667 23.8267 464.2 22.84C464.734 21.8267 465 20.5733 465 19.08C465 17.5867 464.734 16.3467 464.2 15.36C463.694 14.3467 463 13.5867 462.12 13.08C461.267 12.5733 460.334 12.32 459.32 12.32C458.307 12.32 457.36 12.5733 456.48 13.08C455.627 13.5867 454.934 14.3467 454.4 15.36C453.867 16.3467 453.6 17.5867 453.6 19.08C453.6 20.5733 453.867 21.8267 454.4 22.84C454.934 23.8267 455.627 24.5733 456.48 25.08C457.334 25.5867 458.267 25.84 459.28 25.84ZM474.946 29V12.72H472.106V9.16H474.946V6.28C474.946 4.12 475.479 2.57333 476.546 1.64C477.639 0.679999 479.172 0.199999 481.146 0.199999H483.226V3.8H481.786C480.852 3.8 480.186 4 479.786 4.4C479.386 4.77333 479.186 5.41333 479.186 6.32V9.16H483.746V12.72H479.186V29H474.946ZM496.094 29C494.147 29 492.6 28.5333 491.454 27.6C490.307 26.64 489.734 24.9467 489.734 22.52V12.72H486.334V9.16H489.734L490.254 4.12H493.974V9.16H499.574V12.72H493.974V22.52C493.974 23.6133 494.2 24.3733 494.654 24.8C495.134 25.2 495.947 25.4 497.094 25.4H499.374V29H496.094ZM507.906 29L502.066 9.16H506.306L510.146 24.12L514.466 9.16H519.186L523.506 24.12L527.346 9.16H531.586L525.746 29H521.386L516.826 13.4L512.266 29H507.906ZM540.9 29.48C539.22 29.48 537.833 29.2 536.74 28.64C535.647 28.08 534.833 27.3467 534.3 26.44C533.767 25.5067 533.5 24.4933 533.5 23.4C533.5 21.48 534.247 19.96 535.74 18.84C537.233 17.72 539.367 17.16 542.14 17.16H547.34V16.8C547.34 15.2533 546.913 14.0933 546.06 13.32C545.233 12.5467 544.153 12.16 542.82 12.16C541.647 12.16 540.62 12.4533 539.74 13.04C538.887 13.6 538.367 14.44 538.18 15.56H533.94C534.073 14.12 534.553 12.8933 535.38 11.88C536.233 10.84 537.3 10.0533 538.58 9.52C539.887 8.96 541.313 8.68 542.86 8.68C545.633 8.68 547.78 9.41333 549.3 10.88C550.82 12.32 551.58 14.2933 551.58 16.8V29H547.9L547.54 25.6C546.98 26.6933 546.167 27.6133 545.1 28.36C544.033 29.1067 542.633 29.48 540.9 29.48ZM541.74 26.04C542.887 26.04 543.847 25.7733 544.62 25.24C545.42 24.68 546.033 23.9467 546.46 23.04C546.913 22.1333 547.193 21.1333 547.3 20.04H542.58C540.9 20.04 539.7 20.3333 538.98 20.92C538.287 21.5067 537.94 22.24 537.94 23.12C537.94 24.0267 538.273 24.7467 538.94 25.28C539.633 25.7867 540.567 26.04 541.74 26.04ZM556.524 29V9.16H560.324L560.684 12.92C561.377 11.6133 562.337 10.5867 563.564 9.84C564.817 9.06667 566.324 8.68 568.084 8.68V13.12H566.924C565.75 13.12 564.697 13.32 563.764 13.72C562.857 14.0933 562.124 14.7467 561.564 15.68C561.03 16.5867 560.764 17.8533 560.764 19.48V29H556.524ZM580.452 29.48C578.506 29.48 576.772 29.0533 575.252 28.2C573.759 27.32 572.586 26.1067 571.732 24.56C570.879 23.0133 570.452 21.2133 570.452 19.16C570.452 17.08 570.866 15.2533 571.692 13.68C572.546 12.1067 573.719 10.88 575.212 10C576.732 9.12 578.492 8.68 580.492 8.68C582.439 8.68 584.132 9.12 585.572 10C587.012 10.8533 588.132 12 588.932 13.44C589.732 14.88 590.132 16.4667 590.132 18.2C590.132 18.4667 590.119 18.76 590.092 19.08C590.092 19.3733 590.079 19.7067 590.052 20.08H574.612C574.746 22 575.372 23.4667 576.492 24.48C577.639 25.4667 578.959 25.96 580.452 25.96C581.652 25.96 582.652 25.6933 583.452 25.16C584.279 24.6 584.892 23.8533 585.292 22.92H589.532C588.999 24.7867 587.932 26.3467 586.332 27.6C584.759 28.8533 582.799 29.48 580.452 29.48ZM580.452 12.16C579.039 12.16 577.786 12.5867 576.692 13.44C575.599 14.2667 574.932 15.52 574.692 17.2H585.892C585.812 15.6533 585.266 14.4267 584.252 13.52C583.239 12.6133 581.972 12.16 580.452 12.16ZM606.93 37.8L611.69 27.36H610.53L602.69 9.16H607.29L613.37 23.84L619.73 9.16H624.21L611.41 37.8H606.93ZM635.179 29.48C633.285 29.48 631.579 29.0533 630.059 28.2C628.565 27.32 627.379 26.1067 626.499 24.56C625.619 22.9867 625.179 21.16 625.179 19.08C625.179 17 625.619 15.1867 626.499 13.64C627.405 12.0667 628.619 10.8533 630.139 10C631.659 9.12 633.352 8.68 635.219 8.68C637.112 8.68 638.805 9.12 640.299 10C641.819 10.8533 643.019 12.0667 643.899 13.64C644.805 15.1867 645.259 17 645.259 19.08C645.259 21.16 644.805 22.9867 643.899 24.56C643.019 26.1067 641.819 27.32 640.299 28.2C638.779 29.0533 637.072 29.48 635.179 29.48ZM635.179 25.84C636.192 25.84 637.125 25.5867 637.979 25.08C638.859 24.5733 639.565 23.8267 640.099 22.84C640.632 21.8267 640.899 20.5733 640.899 19.08C640.899 17.5867 640.632 16.3467 640.099 15.36C639.592 14.3467 638.899 13.5867 638.019 13.08C637.165 12.5733 636.232 12.32 635.219 12.32C634.205 12.32 633.259 12.5733 632.379 13.08C631.525 13.5867 630.832 14.3467 630.299 15.36C629.765 16.3467 629.499 17.5867 629.499 19.08C629.499 20.5733 629.765 21.8267 630.299 22.84C630.832 23.8267 631.525 24.5733 632.379 25.08C633.232 25.5867 634.165 25.84 635.179 25.84ZM657.164 29.48C654.764 29.48 652.871 28.7333 651.484 27.24C650.124 25.7467 649.444 23.52 649.444 20.56V9.16H653.684V20.12C653.684 23.96 655.257 25.88 658.404 25.88C659.977 25.88 661.271 25.32 662.284 24.2C663.297 23.08 663.804 21.48 663.804 19.4V9.16H668.044V29H664.284L663.964 25.52C663.351 26.7467 662.444 27.72 661.244 28.44C660.071 29.1333 658.711 29.48 657.164 29.48ZM672.238 10.4L674.478 0.999998H679.078L675.198 10.4H672.238ZM688.568 29L681.128 9.16H685.568L691.088 24.96L696.608 9.16H701.008L693.608 29H688.568ZM712.757 29.48C710.81 29.48 709.077 29.0533 707.557 28.2C706.064 27.32 704.89 26.1067 704.037 24.56C703.184 23.0133 702.757 21.2133 702.757 19.16C702.757 17.08 703.17 15.2533 703.997 13.68C704.85 12.1067 706.024 10.88 707.517 10C709.037 9.12 710.797 8.68 712.797 8.68C714.744 8.68 716.437 9.12 717.877 10C719.317 10.8533 720.437 12 721.237 13.44C722.037 14.88 722.437 16.4667 722.437 18.2C722.437 18.4667 722.424 18.76 722.397 19.08C722.397 19.3733 722.384 19.7067 722.357 20.08H706.917C707.05 22 707.677 23.4667 708.797 24.48C709.944 25.4667 711.264 25.96 712.757 25.96C713.957 25.96 714.957 25.6933 715.757 25.16C716.584 24.6 717.197 23.8533 717.597 22.92H721.837C721.304 24.7867 720.237 26.3467 718.637 27.6C717.064 28.8533 715.104 29.48 712.757 29.48ZM712.757 12.16C711.344 12.16 710.09 12.5867 708.997 13.44C707.904 14.2667 707.237 15.52 706.997 17.2H718.197C718.117 15.6533 717.57 14.4267 716.557 13.52C715.544 12.6133 714.277 12.16 712.757 12.16ZM748.074 29.48C746.528 29.48 745.154 29.1733 743.954 28.56C742.781 27.9467 741.848 27.08 741.154 25.96L740.714 29H736.914V0.199999H741.154V12.24C741.794 11.3067 742.674 10.48 743.794 9.76C744.914 9.04 746.354 8.68 748.114 8.68C750.034 8.68 751.728 9.13333 753.194 10.04C754.661 10.9467 755.808 12.1867 756.634 13.76C757.488 15.3333 757.914 17.12 757.914 19.12C757.914 21.12 757.488 22.9067 756.634 24.48C755.808 26.0267 754.661 27.2533 753.194 28.16C751.728 29.04 750.021 29.48 748.074 29.48ZM747.354 25.8C749.168 25.8 750.661 25.1867 751.834 23.96C753.008 22.7067 753.594 21.08 753.594 19.08C753.594 17.7733 753.328 16.6133 752.794 15.6C752.261 14.5867 751.528 13.8 750.594 13.24C749.661 12.6533 748.581 12.36 747.354 12.36C745.541 12.36 744.048 12.9867 742.874 14.24C741.728 15.4933 741.154 17.1067 741.154 19.08C741.154 21.08 741.728 22.7067 742.874 23.96C744.048 25.1867 745.541 25.8 747.354 25.8ZM771.78 29.48C769.834 29.48 768.1 29.0533 766.58 28.2C765.087 27.32 763.914 26.1067 763.06 24.56C762.207 23.0133 761.78 21.2133 761.78 19.16C761.78 17.08 762.194 15.2533 763.02 13.68C763.874 12.1067 765.047 10.88 766.54 10C768.06 9.12 769.82 8.68 771.82 8.68C773.767 8.68 775.46 9.12 776.9 10C778.34 10.8533 779.46 12 780.26 13.44C781.06 14.88 781.46 16.4667 781.46 18.2C781.46 18.4667 781.447 18.76 781.42 19.08C781.42 19.3733 781.407 19.7067 781.38 20.08H765.94C766.074 22 766.7 23.4667 767.82 24.48C768.967 25.4667 770.287 25.96 771.78 25.96C772.98 25.96 773.98 25.6933 774.78 25.16C775.607 24.6 776.22 23.8533 776.62 22.92H780.86C780.327 24.7867 779.26 26.3467 777.66 27.6C776.087 28.8533 774.127 29.48 771.78 29.48ZM771.78 12.16C770.367 12.16 769.114 12.5867 768.02 13.44C766.927 14.2667 766.26 15.52 766.02 17.2H777.22C777.14 15.6533 776.594 14.4267 775.58 13.52C774.567 12.6133 773.3 12.16 771.78 12.16ZM795.14 29.48C793.193 29.48 791.46 29.0533 789.94 28.2C788.446 27.32 787.273 26.1067 786.42 24.56C785.566 23.0133 785.14 21.2133 785.14 19.16C785.14 17.08 785.553 15.2533 786.38 13.68C787.233 12.1067 788.406 10.88 789.9 10C791.42 9.12 793.18 8.68 795.18 8.68C797.126 8.68 798.82 9.12 800.26 10C801.7 10.8533 802.82 12 803.62 13.44C804.42 14.88 804.82 16.4667 804.82 18.2C804.82 18.4667 804.806 18.76 804.78 19.08C804.78 19.3733 804.766 19.7067 804.74 20.08H789.3C789.433 22 790.06 23.4667 791.18 24.48C792.326 25.4667 793.646 25.96 795.14 25.96C796.34 25.96 797.34 25.6933 798.14 25.16C798.966 24.6 799.58 23.8533 799.98 22.92H804.22C803.686 24.7867 802.62 26.3467 801.02 27.6C799.446 28.8533 797.486 29.48 795.14 29.48ZM795.14 12.16C793.726 12.16 792.473 12.5867 791.38 13.44C790.286 14.2667 789.62 15.52 789.38 17.2H800.58C800.5 15.6533 799.953 14.4267 798.94 13.52C797.926 12.6133 796.66 12.16 795.14 12.16ZM809.219 29V9.16H812.979L813.299 12.64C813.912 11.4133 814.806 10.4533 815.979 9.76C817.179 9.04 818.552 8.68 820.099 8.68C822.499 8.68 824.379 9.42667 825.739 10.92C827.126 12.4133 827.819 14.64 827.819 17.6V29H823.619V18.04C823.619 14.2 822.046 12.28 818.899 12.28C817.326 12.28 816.019 12.84 814.979 13.96C813.966 15.08 813.459 16.68 813.459 18.76V29H809.219ZM846.851 29L841.011 9.16H845.251L849.091 24.12L853.411 9.16H858.131L862.451 24.12L866.291 9.16H870.531L864.691 29H860.331L855.771 13.4L851.211 29H846.851ZM879.845 29.48C878.165 29.48 876.779 29.2 875.685 28.64C874.592 28.08 873.779 27.3467 873.245 26.44C872.712 25.5067 872.445 24.4933 872.445 23.4C872.445 21.48 873.192 19.96 874.685 18.84C876.179 17.72 878.312 17.16 881.085 17.16H886.285V16.8C886.285 15.2533 885.859 14.0933 885.005 13.32C884.179 12.5467 883.099 12.16 881.765 12.16C880.592 12.16 879.565 12.4533 878.685 13.04C877.832 13.6 877.312 14.44 877.125 15.56H872.885C873.019 14.12 873.499 12.8933 874.325 11.88C875.179 10.84 876.245 10.0533 877.525 9.52C878.832 8.96 880.259 8.68 881.805 8.68C884.579 8.68 886.725 9.41333 888.245 10.88C889.765 12.32 890.525 14.2933 890.525 16.8V29H886.845L886.485 25.6C885.925 26.6933 885.112 27.6133 884.045 28.36C882.979 29.1067 881.579 29.48 879.845 29.48ZM880.685 26.04C881.832 26.04 882.792 25.7733 883.565 25.24C884.365 24.68 884.979 23.9467 885.405 23.04C885.859 22.1333 886.139 21.1333 886.245 20.04H881.525C879.845 20.04 878.645 20.3333 877.925 20.92C877.232 21.5067 876.885 22.24 876.885 23.12C876.885 24.0267 877.219 24.7467 877.885 25.28C878.579 25.7867 879.512 26.04 880.685 26.04ZM897.869 5.4C897.069 5.4 896.402 5.16 895.869 4.68C895.362 4.17333 895.109 3.54667 895.109 2.8C895.109 2.05333 895.362 1.44 895.869 0.959999C896.402 0.453332 897.069 0.199999 897.869 0.199999C898.669 0.199999 899.322 0.453332 899.829 0.959999C900.362 1.44 900.629 2.05333 900.629 2.8C900.629 3.54667 900.362 4.17333 899.829 4.68C899.322 5.16 898.669 5.4 897.869 5.4ZM895.749 29V9.16H899.989V29H895.749ZM913.906 29C911.96 29 910.413 28.5333 909.266 27.6C908.12 26.64 907.546 24.9467 907.546 22.52V12.72H904.146V9.16H907.546L908.066 4.12H911.786V9.16H917.386V12.72H911.786V22.52C911.786 23.6133 912.013 24.3733 912.466 24.8C912.946 25.2 913.76 25.4 914.906 25.4H917.186V29H913.906ZM924.158 5.4C923.358 5.4 922.691 5.16 922.158 4.68C921.651 4.17333 921.398 3.54667 921.398 2.8C921.398 2.05333 921.651 1.44 922.158 0.959999C922.691 0.453332 923.358 0.199999 924.158 0.199999C924.958 0.199999 925.611 0.453332 926.118 0.959999C926.651 1.44 926.918 2.05333 926.918 2.8C926.918 3.54667 926.651 4.17333 926.118 4.68C925.611 5.16 924.958 5.4 924.158 5.4ZM922.038 29V9.16H926.278V29H922.038ZM931.875 29V9.16H935.635L935.955 12.64C936.569 11.4133 937.462 10.4533 938.635 9.76C939.835 9.04 941.209 8.68 942.755 8.68C945.155 8.68 947.035 9.42667 948.395 10.92C949.782 12.4133 950.475 14.64 950.475 17.6V29H946.275V18.04C946.275 14.2 944.702 12.28 941.555 12.28C939.982 12.28 938.675 12.84 937.635 13.96C936.622 15.08 936.115 16.68 936.115 18.76V29H931.875ZM963.589 22.92C962.549 22.92 961.589 22.8 960.709 22.56L958.989 24.24C959.282 24.4267 959.642 24.5867 960.069 24.72C960.496 24.8533 961.096 24.9733 961.869 25.08C962.642 25.1867 963.696 25.2933 965.029 25.4C967.669 25.64 969.576 26.28 970.749 27.32C971.922 28.3333 972.509 29.6933 972.509 31.4C972.509 32.5733 972.189 33.68 971.549 34.72C970.936 35.7867 969.962 36.64 968.629 37.28C967.322 37.9467 965.642 38.28 963.589 38.28C960.816 38.28 958.562 37.7467 956.829 36.68C955.122 35.64 954.269 34.0533 954.269 31.92C954.269 31.0933 954.482 30.2667 954.909 29.44C955.362 28.64 956.069 27.88 957.029 27.16C956.469 26.92 955.976 26.6667 955.549 26.4C955.149 26.1067 954.789 25.8133 954.469 25.52V24.56L957.909 21.04C956.362 19.7067 955.589 17.96 955.589 15.8C955.589 14.4933 955.896 13.3067 956.509 12.24C957.149 11.1467 958.069 10.28 959.269 9.64C960.469 9 961.909 8.68 963.589 8.68C964.709 8.68 965.749 8.84 966.709 9.16H974.109V11.96L970.589 12.16C971.229 13.2533 971.549 14.4667 971.549 15.8C971.549 17.1333 971.229 18.3333 970.589 19.4C969.976 20.4667 969.069 21.32 967.869 21.96C966.696 22.6 965.269 22.92 963.589 22.92ZM963.589 19.6C964.816 19.6 965.802 19.28 966.549 18.64C967.322 17.9733 967.709 17.04 967.709 15.84C967.709 14.6133 967.322 13.68 966.549 13.04C965.802 12.4 964.816 12.08 963.589 12.08C962.336 12.08 961.322 12.4 960.549 13.04C959.802 13.68 959.429 14.6133 959.429 15.84C959.429 17.04 959.802 17.9733 960.549 18.64C961.322 19.28 962.336 19.6 963.589 19.6ZM958.269 31.52C958.269 32.6667 958.776 33.52 959.789 34.08C960.802 34.6667 962.069 34.96 963.589 34.96C965.056 34.96 966.242 34.64 967.149 34C968.056 33.3867 968.509 32.56 968.509 31.52C968.509 30.7467 968.202 30.08 967.589 29.52C966.976 28.9867 965.816 28.6533 964.109 28.52C962.829 28.44 961.696 28.32 960.709 28.16C959.776 28.6667 959.136 29.2133 958.789 29.8C958.442 30.3867 958.269 30.96 958.269 31.52ZM988.969 29V12.72H986.129V9.16H988.969V6.28C988.969 4.12 989.502 2.57333 990.569 1.64C991.662 0.679999 993.196 0.199999 995.169 0.199999H997.249V3.8H995.809C994.876 3.8 994.209 4 993.809 4.4C993.409 4.77333 993.209 5.41333 993.209 6.32V9.16H997.769V12.72H993.209V29H988.969ZM1010.3 29.48C1008.4 29.48 1006.7 29.0533 1005.18 28.2C1003.68 27.32 1002.5 26.1067 1001.62 24.56C1000.74 22.9867 1000.3 21.16 1000.3 19.08C1000.3 17 1000.74 15.1867 1001.62 13.64C1002.52 12.0667 1003.74 10.8533 1005.26 10C1006.78 9.12 1008.47 8.68 1010.34 8.68C1012.23 8.68 1013.92 9.12 1015.42 10C1016.94 10.8533 1018.14 12.0667 1019.02 13.64C1019.92 15.1867 1020.38 17 1020.38 19.08C1020.38 21.16 1019.92 22.9867 1019.02 24.56C1018.14 26.1067 1016.94 27.32 1015.42 28.2C1013.9 29.0533 1012.19 29.48 1010.3 29.48ZM1010.3 25.84C1011.31 25.84 1012.24 25.5867 1013.1 25.08C1013.98 24.5733 1014.68 23.8267 1015.22 22.84C1015.75 21.8267 1016.02 20.5733 1016.02 19.08C1016.02 17.5867 1015.75 16.3467 1015.22 15.36C1014.71 14.3467 1014.02 13.5867 1013.14 13.08C1012.28 12.5733 1011.35 12.32 1010.34 12.32C1009.32 12.32 1008.38 12.5733 1007.5 13.08C1006.64 13.5867 1005.95 14.3467 1005.42 15.36C1004.88 16.3467 1004.62 17.5867 1004.62 19.08C1004.62 20.5733 1004.88 21.8267 1005.42 22.84C1005.95 23.8267 1006.64 24.5733 1007.5 25.08C1008.35 25.5867 1009.28 25.84 1010.3 25.84ZM1024.96 29V9.16H1028.76L1029.12 12.92C1029.81 11.6133 1030.77 10.5867 1032 9.84C1033.25 9.06667 1034.76 8.68 1036.52 8.68V13.12H1035.36C1034.19 13.12 1033.13 13.32 1032.2 13.72C1031.29 14.0933 1030.56 14.7467 1030 15.68C1029.47 16.5867 1029.2 17.8533 1029.2 19.48V29H1024.96Z" fill="#545454"/>
</svg>
